<svg width="200" height="200" viewBox="0 0 200 200" fill="none" xmlns="http://www.w3.org/2000/svg">
<path d="M159.519 64.4421C157.286 31.6667 128.86 6.91205 96.0288 9.14119C79.6691 10.2507 65.3085 17.8542 55.2826 29.2441L55.252 29.2238C55.1806 29.3154 55.1194 29.407 55.0582 29.4986C45.1037 40.9598 39.5043 56.1872 40.6161 72.5138C40.718 74.0711 40.9016 75.5979 41.126 77.1146C41.126 77.1858 41.1464 77.2469 41.1566 77.3182C41.3096 78.3157 41.483 79.3132 41.6768 80.2903C41.6768 80.3107 41.6768 80.331 41.687 80.3412C41.8706 81.2268 42.0644 82.1123 42.2887 82.9877C49.1733 110.379 74.8857 129.779 104.117 127.794C136.948 125.565 161.763 97.1972 159.53 64.4217L159.519 64.4421ZM146.546 65.3276C146.821 69.3584 146.566 73.3077 145.842 77.1146C145.842 77.0942 145.822 77.0739 145.822 77.0535C141.497 66.5185 132.95 58.9049 125.444 54.7011C126.963 36.8476 120.895 29.3154 114.02 28.0939C113.837 28.0532 113.643 28.0227 113.459 28.0023C108.003 27.3 103.015 31.1475 102.322 36.5932C101.618 42.0388 105.473 47.0161 110.93 47.7083C111.409 47.7694 111.879 47.7897 112.337 47.7795C112.368 48.3801 112.388 49.0213 112.388 49.6931C106.034 48.1256 100.098 47.8101 94.6825 48.2987C92.6528 48.431 90.6334 48.6855 88.6139 49.0621C89.2871 43.0363 91.5615 36.2573 95.9574 31.3104C100.211 26.5162 106.534 23.7782 113.429 24.4805C114.734 24.6128 116.132 24.9385 117.386 25.3559C117.447 25.3762 117.509 25.3966 117.56 25.4068C133.532 31.9008 145.291 47.0365 146.536 65.3276H146.546ZM105.004 74.407C105.004 74.407 105.004 74.4172 104.994 74.4274C103.576 76.4733 101.883 78.4887 99.8943 80.443C96.9161 77.2876 94.5295 73.8777 92.714 70.3559C92.6222 70.1625 92.5202 69.9895 92.4285 69.7961C92.4285 69.7961 92.4285 69.7859 92.4285 69.7757C91.3677 67.5262 90.46 65.0528 89.7562 62.3555C93.9889 61.3579 98.1401 60.9915 102.108 61.1849C102.322 61.1951 102.526 61.2053 102.74 61.2154H102.76C105.249 61.419 107.84 61.8771 110.522 62.6099C109.267 66.7628 107.513 70.5391 105.361 73.8676C105.249 74.0406 105.137 74.2136 105.014 74.3969L105.004 74.407ZM84.6464 24.6026C84.6464 24.6026 84.626 24.6332 84.6158 24.6434C77.6293 33.6413 75.3038 44.8277 75.4058 53.4185C59.1482 61.0322 55.66 70.0404 58.0262 76.5955C58.0874 76.7787 58.1588 76.9517 58.2302 77.1248C60.3517 82.1836 66.1857 84.5756 71.2547 82.4584C76.3238 80.3412 78.7206 74.519 76.5992 69.4602C76.4156 69.0225 76.1912 68.6052 75.9566 68.2082C76.4666 67.8723 77.0173 67.5364 77.6089 67.1903C79.4244 73.4706 82.1068 78.7737 85.238 83.2116C86.3701 84.8911 87.594 86.5095 88.9301 88.0669C83.3613 90.4996 76.3442 91.9246 69.8472 90.6014C63.5645 89.3188 58.0262 85.227 55.1806 78.9162C54.6401 77.7151 54.2219 76.3512 53.9567 75.0585C53.7935 73.9286 53.6609 72.7886 53.5794 71.6283C52.1311 50.3242 65.3697 31.3613 84.6464 24.6026V24.6026ZM103.23 114.857C90.5518 115.722 78.7002 111.407 69.7452 103.732C81.046 105.269 91.9185 101.686 99.3232 97.2989C114.061 107.549 123.628 106.063 128.136 100.739C128.259 100.597 128.381 100.444 128.493 100.291C131.828 95.9248 130.982 89.6955 126.606 86.367C122.231 83.0386 115.989 83.8834 112.654 88.2501C112.368 88.6267 112.113 89.0338 111.889 89.441C111.348 89.1662 110.777 88.8608 110.196 88.5249C114.745 83.8122 117.978 78.8348 120.262 73.9083C121.16 72.0863 121.945 70.2134 122.629 68.2795C127.524 71.8827 132.277 77.2265 134.378 83.5068C136.408 89.5733 135.633 96.4134 131.573 102.022C130.808 103.08 129.829 104.129 128.84 105.004C128.83 105.014 128.809 105.035 128.799 105.045C121.7 110.613 112.909 114.196 103.24 114.847L103.23 114.857Z" fill="url(#paint0_linear_421_816)"/>
<path style="mix-blend-mode:overlay" opacity="0.9" d="M114.025 28.0835C113.841 28.0428 113.648 28.0123 113.464 27.9919C112.495 27.8698 111.547 27.8902 110.639 28.0428C116.34 31.1372 120.491 39.7585 118.309 56.7773C117.585 62.4163 115.902 67.7703 113.484 72.6968C111.516 76.9311 108.844 81.196 105.254 85.298C106.977 86.5907 108.66 87.6697 110.2 88.545C114.749 83.8323 117.982 78.8549 120.267 73.9284C122.694 69.0121 124.367 63.6479 125.091 58.0089C127.692 37.7533 121.307 29.3864 114.025 28.0937V28.0835Z" fill="url(#paint1_radial_421_816)"/>
<g style="mix-blend-mode:overlay" opacity="0.8">
<path d="M118.306 56.7672C120.489 39.7586 116.338 31.127 110.636 28.0327C110.412 28.0633 110.198 28.1141 109.974 28.165C115.553 31.3713 119.571 39.9825 117.419 56.7672C116.695 62.4062 115.012 67.7602 112.595 72.6867C110.698 76.7785 108.127 80.9009 104.711 84.8808C104.894 85.0233 105.068 85.1556 105.251 85.2879C108.841 81.1859 111.514 76.9108 113.482 72.6867C115.91 67.7704 117.582 62.4062 118.306 56.7672V56.7672Z" fill="white"/>
</g>
<path style="mix-blend-mode:overlay" opacity="0.5" d="M96.6319 95.3547C96.0913 94.9475 95.5814 94.52 95.0612 94.0925C86.6468 97.594 74.989 99.7926 63.4026 97.1054C65.2997 99.5178 67.4109 101.747 69.7363 103.732C81.0372 105.269 91.9096 101.686 99.3143 97.2988C98.4372 96.6881 97.5396 96.0367 96.6217 95.3445L96.6319 95.3547Z" fill="url(#paint2_radial_421_816)"/>
<path style="mix-blend-mode:overlay" opacity="0.6" d="M95.0725 94.0922C94.8175 93.8784 94.5523 93.6647 94.3075 93.4509C85.8319 96.8303 74.1129 98.8558 62.5571 95.9752C62.8427 96.3519 63.1283 96.7386 63.4139 97.1051C74.9901 99.7923 86.6581 97.5937 95.0725 94.0922V94.0922Z" fill="url(#paint3_linear_421_816)"/>
<path style="mix-blend-mode:overlay" opacity="0.9" d="M58.0386 76.6059C58.0998 76.7891 58.1712 76.9621 58.2426 77.1352C58.6199 78.0309 59.1095 78.835 59.7011 79.5577C59.5379 73.084 64.9435 65.1752 80.7932 58.559C86.0458 56.3706 91.533 55.139 97.0203 54.7726C101.671 54.3552 106.72 54.5283 112.074 55.5868C112.329 53.4493 112.431 51.4543 112.411 49.6934C106.057 48.1157 100.111 47.8103 94.6948 48.2989C89.2178 48.6653 83.7204 49.897 78.4678 52.0854C59.5889 59.9637 55.5193 69.664 58.0386 76.616V76.6059Z" fill="url(#paint4_radial_421_816)"/>
<g style="mix-blend-mode:overlay" opacity="0.8">
<path d="M80.7935 58.5691C64.9438 65.1853 59.5381 73.0941 59.7013 79.5678C59.8441 79.7408 59.9971 79.9037 60.1501 80.0665C60.1399 73.6438 65.6067 65.8672 81.2422 59.3325C86.4949 57.1441 91.9821 55.9125 97.4693 55.546C101.967 55.1389 106.832 55.3017 111.993 56.2585C112.024 56.0346 112.054 55.8107 112.075 55.5867C106.72 54.5383 101.671 54.3551 97.0205 54.7725C91.5435 55.1389 86.0461 56.3705 80.7935 58.5589V58.5691Z" fill="white"/>
</g>
<path style="mix-blend-mode:overlay" opacity="0.4" d="M125.111 57.9993C125.03 58.6711 124.917 59.3225 124.805 59.9842C132.047 65.501 139.788 74.4888 143.256 85.8381C144.398 82.988 145.275 80.0464 145.836 77.0437C141.522 66.5087 132.975 58.9052 125.468 54.7014C125.376 55.7702 125.264 56.8593 125.121 57.9993H125.111Z" fill="url(#paint5_radial_421_816)"/>
<path style="mix-blend-mode:overlay" opacity="0.5" d="M124.802 59.9839C124.741 60.3096 124.69 60.6455 124.628 60.9712C131.799 66.6102 139.417 75.7202 142.691 87.1508C142.885 86.7132 143.069 86.2755 143.242 85.8378C139.774 74.4885 132.043 65.5109 124.792 59.9839H124.802Z" fill="url(#paint6_linear_421_816)"/>
<path style="mix-blend-mode:overlay" opacity="0.9" d="M128.136 100.729C128.259 100.586 128.381 100.434 128.493 100.281C129.085 99.5075 129.534 98.6728 129.87 97.8178C124.332 101.197 114.775 100.474 101.098 90.082C96.5694 86.6416 92.7549 82.509 89.6951 77.949C87.0025 74.132 84.6363 69.694 82.8718 64.5334C80.8931 65.3783 79.1083 66.2944 77.5784 67.1901C79.3938 73.4703 82.0967 78.7633 85.2278 83.2012C88.2876 87.7612 92.1022 91.8836 96.6306 95.3342C112.909 107.712 123.363 106.378 128.126 100.729H128.136Z" fill="url(#paint7_radial_421_816)"/>
<g style="mix-blend-mode:overlay" opacity="0.8">
<path d="M101.105 90.0823C114.772 100.475 124.339 101.197 129.878 97.8181C129.959 97.6044 130.031 97.3906 130.092 97.187C124.523 100.414 115.038 99.5689 101.554 89.3189C97.0256 85.8785 93.2111 81.7459 90.1513 77.1859C87.5505 73.5012 85.2556 69.216 83.5116 64.2793C83.2974 64.3709 83.0934 64.4523 82.8894 64.5439C84.6539 69.7045 87.0201 74.1425 89.7127 77.9595C92.7725 82.5195 96.5871 86.6419 101.116 90.0925L101.105 90.0823Z" fill="white"/>
</g>
<path style="mix-blend-mode:overlay" opacity="0.3" d="M78.4549 52.0646C79.077 51.8101 79.6992 51.576 80.3316 51.3419C81.4943 42.3236 85.421 31.1372 93.5396 22.4751C90.5002 22.9128 87.5119 23.6253 84.6153 24.633C77.6287 33.631 75.3033 44.8174 75.4053 53.4082C76.3742 52.9501 77.384 52.5023 78.4447 52.0646H78.4549Z" fill="url(#paint8_radial_421_816)"/>
<path style="mix-blend-mode:overlay" opacity="0.4" d="M80.3298 51.342C80.646 51.23 80.952 51.1079 81.2682 50.9959C82.5737 41.9776 86.6738 30.8421 94.9454 22.292C94.4763 22.3429 94.0071 22.404 93.5379 22.465C85.4193 31.1373 81.4926 42.3135 80.3298 51.3318V51.342Z" fill="url(#paint9_linear_421_816)"/>
<path style="mix-blend-mode:multiply" opacity="0.4" d="M96.0289 9.14118C79.6692 10.2507 65.3086 17.8542 55.2827 29.2441C55.2113 29.3255 55.1297 29.4172 55.0583 29.4986C57.0064 31.4325 63.3912 35.2394 65.9716 36.8273C71.0508 31.3816 77.4254 27.1269 84.6567 24.6026C85.1565 23.9512 85.6868 23.3099 86.2376 22.689C92.9691 15.1059 102.159 11.1057 112.827 11.1057C114.01 11.1057 116.427 11.2991 116.478 11.2991C110.012 9.44654 103.128 8.6526 96.0289 9.14118Z" fill="url(#paint10_linear_421_816)"/>
<path style="mix-blend-mode:multiply" opacity="0.4" d="M103.231 114.868C90.5528 115.733 78.7013 111.417 69.7463 103.742C68.9099 103.63 68.0736 103.498 67.2373 103.325C57.293 101.299 49.2151 95.3551 43.8911 86.1433C43.2995 85.1153 42.7692 84.0771 42.2898 83.0083C49.1743 110.399 74.8867 129.8 104.108 127.815C104.24 124.812 103.353 117.84 103.22 114.868H103.231Z" fill="url(#paint11_linear_421_816)"/>
<path style="mix-blend-mode:multiply" opacity="0.4" d="M159.521 64.4421C157.685 64.2588 148.751 64.9612 146.548 65.3276C146.823 69.3584 146.568 73.3077 145.844 77.1145C146.15 77.8678 146.446 78.6414 146.711 79.4251C149.924 89.0338 148.802 98.9784 143.478 108.2C142.896 109.208 142.264 110.175 141.601 111.101C141.591 111.122 141.571 111.142 141.56 111.152C141.56 111.152 141.591 111.132 141.601 111.111C153.708 99.355 160.755 82.5805 159.521 64.4522V64.4421Z" fill="url(#paint12_linear_421_816)"/>
<path style="mix-blend-mode:multiply" opacity="0.5" d="M113.441 24.4704C114.746 24.6027 116.143 24.9284 117.398 25.3458C117.459 25.3661 117.52 25.3865 117.571 25.3967C122.712 27.4833 127.414 30.4758 131.473 34.1707C131.473 34.1707 131.493 34.1809 131.503 34.191C133.462 31.9619 137.225 29.5088 137.225 29.5088C137.225 29.5088 131.463 23.6256 122.64 21.7934C116.47 20.5109 102.548 19.2792 93.7661 34.191C93.7661 34.191 93.7967 34.1605 93.8477 34.1096C94.5005 33.1325 95.1838 32.1757 95.9692 31.3003C100.222 26.5061 106.546 23.7681 113.441 24.4704V24.4704Z" fill="url(#paint13_linear_421_816)"/>
<path style="mix-blend-mode:multiply" opacity="0.5" d="M131.575 102.032C130.811 103.091 129.831 104.139 128.842 105.014C128.801 105.055 128.75 105.096 128.709 105.136C124.324 108.536 119.377 111.101 114.145 112.76C114.135 112.76 114.124 112.76 114.114 112.771C115.073 115.58 115.318 120.058 115.318 120.058C115.318 120.058 123.304 118.023 129.301 111.315C133.493 106.623 141.53 95.2021 132.983 80.158C132.983 80.158 132.993 80.2088 133.014 80.2699C133.544 81.3183 134.023 82.3973 134.39 83.5067C136.42 89.5733 135.645 96.4133 131.586 102.022L131.575 102.032Z" fill="url(#paint14_linear_421_816)"/>
<path style="mix-blend-mode:multiply" opacity="0.5" d="M55.2044 78.9367C54.6639 77.7356 54.2457 76.3717 53.9805 75.079C53.9703 75.0179 53.9499 74.9568 53.9397 74.8957C53.185 69.4094 53.4298 63.8519 54.6027 58.4979C54.6027 58.4877 54.6027 58.4775 54.6027 58.4673C51.6857 57.8973 47.6774 55.8616 47.6774 55.8616C47.6774 55.8616 45.4539 63.7908 48.2791 72.3205C50.2578 78.2954 56.1428 90.9476 73.4714 91.0799C73.4714 91.0799 73.4204 91.0697 73.3592 91.0493C72.1863 90.9781 71.0133 90.856 69.8608 90.6218C63.5781 89.3393 58.0398 85.2475 55.1942 78.9367H55.2044Z" fill="url(#paint15_linear_421_816)"/>
<path style="mix-blend-mode:multiply" opacity="0.6" d="M110.931 47.6983C111.41 47.7593 111.879 47.7797 112.338 47.7695C112.338 47.7695 112.022 41.591 111.267 38.4153C110.502 35.2497 109.381 33.1427 108.157 31.9518C107.269 31.0968 104.485 30.0382 102.323 36.5729C101.619 42.0185 105.474 46.9959 110.931 47.6881V47.6983Z" fill="url(#paint16_linear_421_816)"/>
<path style="mix-blend-mode:multiply" opacity="0.5" d="M76.6108 69.4805C76.4272 69.0428 76.2028 68.6255 75.9683 68.2285C75.9683 68.2285 70.7564 71.5875 68.3902 73.8268C66.024 76.0661 64.7592 78.0917 64.3411 79.7508C64.0453 80.9417 64.5145 83.8732 71.2664 82.4787C76.3354 80.3615 78.7323 74.5393 76.6108 69.4805V69.4805Z" fill="url(#paint17_linear_421_816)"/>
<path style="mix-blend-mode:multiply" opacity="0.6" d="M112.666 88.2402C112.38 88.6168 112.125 89.024 111.901 89.4311C111.901 89.4311 117.418 92.2506 120.55 93.1769C123.681 94.1032 126.067 94.1846 127.71 93.7164C128.893 93.3805 131.198 91.4974 126.618 86.3674C122.243 83.0389 116.001 83.8837 112.666 88.2504V88.2402Z" fill="url(#paint18_linear_421_816)"/>
<path style="mix-blend-mode:multiply" opacity="0.3" d="M110.525 62.6201C109.27 66.773 107.516 70.5493 105.364 73.8778C105.252 74.0508 105.14 74.2238 105.017 74.4071C105.017 74.4071 105.017 74.4172 105.007 74.4274C103.589 76.4733 101.896 78.4887 99.9075 80.443C101.274 81.8884 102.743 83.2931 104.365 84.6265C106.404 86.2245 108.393 87.5172 110.199 88.5351C114.747 83.8224 117.981 78.845 120.265 73.9185C121.163 72.0965 121.948 70.2236 122.631 68.2897C120.53 66.7527 118.409 65.521 116.451 64.6864C114.431 63.8212 112.453 63.1494 110.515 62.6201H110.525Z" fill="url(#paint19_linear_421_816)"/>
<path style="mix-blend-mode:multiply" opacity="0.3" d="M69.7474 103.742C81.0482 105.279 91.9207 101.696 99.3254 97.3091C98.4482 96.6983 97.5507 96.0469 96.6328 95.3548C93.777 93.1765 91.2067 90.7336 88.9221 88.077C83.3533 90.5097 76.3362 91.9347 69.8392 90.6115C63.5565 89.329 58.0182 85.2371 55.1726 78.9263C54.6321 77.7252 54.2139 76.3613 53.9487 75.0686C55.5908 86.5705 61.4044 96.6067 69.7372 103.742H69.7474Z" fill="url(#paint20_linear_421_816)"/>
<path style="mix-blend-mode:multiply" opacity="0.3" d="M99.9053 80.443C96.9271 77.2876 94.5405 73.8778 92.725 70.3559C92.6332 70.1625 92.5312 69.9895 92.4394 69.7961C92.4394 69.7961 92.4394 69.7859 92.4394 69.7757C91.3787 67.5263 90.471 65.0528 89.7672 62.3555C87.8294 62.8135 85.8813 63.3835 83.923 64.1164C81.516 65.0732 79.4047 66.1521 77.6199 67.1904C79.4353 73.4706 82.1178 78.7737 85.2489 83.2116C86.3811 84.8911 87.605 86.5095 88.9411 88.0669C91.3277 87.0286 93.4594 85.797 95.1627 84.5247C96.9169 83.2116 98.4876 81.8375 99.9155 80.4328L99.9053 80.443Z" fill="url(#paint21_linear_421_816)"/>
<path style="mix-blend-mode:multiply" opacity="0.3" d="M84.6175 24.6434C77.6309 33.6413 75.3055 44.8277 75.4075 53.4185C76.3764 52.9605 77.3964 52.5126 78.4571 52.0648C81.7719 50.6805 85.1784 49.683 88.6156 49.0417C89.2887 43.0159 91.5632 36.2369 95.9591 31.29C100.212 26.4959 106.536 23.7578 113.43 24.4601C114.736 24.5925 116.133 24.9182 117.388 25.3355C117.449 25.3559 117.51 25.3762 117.561 25.3864C111.207 22.801 104.19 21.5796 96.8974 22.0783C92.6137 22.3735 88.5136 23.2387 84.6378 24.6026C84.6277 24.6128 84.6175 24.6332 84.6073 24.6434H84.6175Z" fill="url(#paint22_linear_421_816)"/>
<path style="mix-blend-mode:multiply" opacity="0.3" d="M145.833 77.0333C141.508 66.4984 132.961 58.8847 125.455 54.6809C125.363 55.7497 125.251 56.849 125.098 57.9992C124.639 61.5515 123.802 64.9919 122.64 68.2898C127.535 71.8931 132.288 77.2369 134.389 83.5172C136.419 89.5837 135.644 96.4238 131.584 102.032C130.819 103.091 129.84 104.139 128.851 105.015C128.841 105.025 128.82 105.045 128.81 105.055C137.561 98.1949 143.752 88.3012 145.874 77.1046C145.874 77.0842 145.853 77.0639 145.853 77.0435L145.833 77.0333Z" fill="url(#paint23_linear_421_816)"/>
<path style="mix-blend-mode:multiply" opacity="0.3" d="M88.5844 56.2076C88.8496 58.3858 89.2474 60.4215 89.7573 62.3555C93.99 61.358 98.1411 60.9915 102.109 61.1849C102.323 61.1951 102.527 61.2053 102.741 61.2155H102.761C105.25 61.4191 107.841 61.8771 110.523 62.61C111.094 60.7065 111.574 58.7319 111.92 56.6758C112.298 54.1107 112.41 51.7391 112.4 49.6728C106.046 48.1053 100.11 47.7898 94.6938 48.2783C92.6641 48.4107 90.6447 48.6651 88.6252 49.0418C88.3396 51.6271 88.3294 54.0802 88.5946 56.1974L88.5844 56.2076Z" fill="url(#paint24_linear_421_816)"/>
<path d="M127.164 163.829L122.441 176.947H122.478L127.189 163.904L127.164 163.829Z" fill="#010101"/>
<path d="M43.3252 163.829L38.6023 176.947H38.6211L43.3441 163.873L43.3252 163.829Z" fill="#010101"/>
<path d="M44.5048 167.107L48.047 176.947H40.9438L39.1538 181.911H49.8558L52.8893 190.329H59.6785L47.3059 159.354L44.5048 167.107Z" fill="#010101"/>
<path d="M38.6021 176.947L43.325 163.829L43.3438 163.873L45.3347 158.357H40.1219L27.3914 190.329H33.7849L38.6209 176.947H38.6021Z" fill="#010101"/>
<path d="M80.2488 173.858C78.7038 172.949 76.6501 172.096 74.0939 171.313C72.6305 170.836 71.4875 170.398 70.6585 169.99C69.8294 169.583 69.2516 169.119 68.9313 168.605C68.611 168.085 68.4477 167.477 68.4477 166.775C68.4477 165.54 68.925 164.587 69.8797 163.917C70.8343 163.246 72.1721 162.908 73.8866 162.908C75.2935 162.908 76.7568 163.121 78.2893 163.541C79.8217 163.961 81.1783 164.537 82.359 165.264L83.2446 160.093C82.0387 159.366 80.5691 158.783 78.842 158.345C77.1148 157.912 75.394 157.693 73.6794 157.693C71.3493 157.693 69.3207 158.069 67.6124 158.827C65.8978 159.586 64.5727 160.664 63.6306 162.068C62.6885 163.472 62.2175 165.127 62.2175 167.032C62.2175 168.662 62.5315 170.066 63.1658 171.256C63.8002 172.447 64.8302 173.482 66.2621 174.346C67.6941 175.218 69.5782 176.001 71.9083 176.703C73.5915 177.211 74.8978 177.687 75.8273 178.132C76.7568 178.577 77.4037 179.079 77.768 179.624C78.1323 180.169 78.3144 180.821 78.3144 181.58C78.3144 182.896 77.7743 183.93 76.694 184.67C75.6138 185.409 74.1127 185.785 72.2035 185.785C70.5454 185.785 68.812 185.528 66.9969 185.008C65.1819 184.488 63.6055 183.823 62.2552 183.009L61.6648 188.349C62.4499 188.882 63.4359 189.345 64.6166 189.734C65.7974 190.129 67.066 190.436 68.4289 190.662C69.7918 190.887 71.1483 191 72.4987 191C76.2921 191 79.269 190.135 81.4358 188.411C83.5963 186.688 84.6828 184.3 84.6828 181.241C84.6828 179.618 84.3311 178.207 83.6277 177.017C82.9243 175.826 81.8001 174.773 80.2551 173.864L80.2488 173.858Z" fill="#010101"/>
<path d="M113.882 158.357H86.782V163.572H113.882V158.357Z" fill="#010101"/>
<path d="M103.555 165.753H97.105V190.323H103.555V165.753Z" fill="#010101"/>
<path d="M122.442 176.947L127.165 163.829L127.19 163.904L129.193 158.357H123.955L111.231 190.329H117.637L120.671 181.911H120.683L122.479 176.947H122.442Z" fill="#010101"/>
<path d="M128.351 167.132L131.88 176.948H124.802L123.012 181.912H133.695L136.729 190.329H143.518L131.152 159.379L128.351 167.132Z" fill="#010101"/>
<path d="M164.375 177.374C165.92 176.503 167.183 175.337 168.169 173.864C169.155 172.391 169.645 170.674 169.645 168.712C169.645 166.581 169.167 164.744 168.213 163.202C167.258 161.66 165.895 160.47 164.124 159.63C162.353 158.79 160.249 158.37 157.8 158.37H155.558V163.209H156.952C161.223 163.209 163.358 165.033 163.358 168.674C163.358 172.316 161.153 174.14 156.738 174.14H155.551V178.978H158.842L165.587 190.336H172.798L164.369 177.38L164.375 177.374Z" fill="#010101"/>
<path d="M153.378 158.357H147.268V190.323H153.378V158.357Z" fill="#010101"/>
<defs>
<linearGradient id="paint0_linear_421_816" x1="59.4031" y1="109.066" x2="135.234" y2="33.0708" gradientUnits="userSpaceOnUse">
<stop stop-color="#E6007A"/>
<stop offset="0.21" stop-color="#703AC2"/>
<stop offset="0.46" stop-color="#0070EB"/>
<stop offset="0.77" stop-color="#0297FB"/>
<stop offset="1" stop-color="#0AE2FF"/>
</linearGradient>
<radialGradient id="paint1_radial_421_816" cx="0" cy="0" r="1" gradientUnits="userSpaceOnUse" gradientTransform="translate(117.064 56.4312) scale(22.6628 22.6171)">
<stop stop-color="white"/>
<stop offset="1" stop-color="white" stop-opacity="0"/>
</radialGradient>
<radialGradient id="paint2_radial_421_816" cx="0" cy="0" r="1" gradientUnits="userSpaceOnUse" gradientTransform="translate(83.5666 98.3879) scale(13.1877 13.1611)">
<stop stop-color="white"/>
<stop offset="1" stop-color="white" stop-opacity="0"/>
</radialGradient>
<linearGradient id="paint3_linear_421_816" x1="63.781" y1="96.1585" x2="76.4894" y2="95.9847" gradientUnits="userSpaceOnUse">
<stop stop-color="white" stop-opacity="0"/>
<stop offset="1" stop-color="white"/>
</linearGradient>
<radialGradient id="paint4_radial_421_816" cx="0" cy="0" r="1" gradientUnits="userSpaceOnUse" gradientTransform="translate(81.1351 59.8102) rotate(-120.05) scale(22.6285 22.6514)">
<stop stop-color="white"/>
<stop offset="1" stop-color="white" stop-opacity="0"/>
</radialGradient>
<radialGradient id="paint5_radial_421_816" cx="0" cy="0" r="1" gradientUnits="userSpaceOnUse" gradientTransform="translate(134.293 67.7805) rotate(-120.05) scale(13.1677 13.181)">
<stop stop-color="white"/>
<stop offset="1" stop-color="white" stop-opacity="0"/>
</radialGradient>
<linearGradient id="paint6_linear_421_816" x1="142.244" y1="85.9871" x2="135.759" y2="75.0786" gradientUnits="userSpaceOnUse">
<stop stop-color="white" stop-opacity="0"/>
<stop offset="1" stop-color="white"/>
</linearGradient>
<radialGradient id="paint7_radial_421_816" cx="0" cy="0" r="1" gradientUnits="userSpaceOnUse" gradientTransform="translate(100.949 88.1255) rotate(120.05) scale(22.6285 22.6514)">
<stop stop-color="white"/>
<stop offset="1" stop-color="white" stop-opacity="0"/>
</radialGradient>
<radialGradient id="paint8_radial_421_816" cx="0" cy="0" r="1" gradientUnits="userSpaceOnUse" gradientTransform="translate(82.361 39.2527) rotate(120.05) scale(13.1677 13.181)">
<stop stop-color="white"/>
<stop offset="1" stop-color="white" stop-opacity="0"/>
</radialGradient>
<linearGradient id="paint9_linear_421_816" x1="94.1782" y1="23.2611" x2="88.0021" y2="34.3469" gradientUnits="userSpaceOnUse">
<stop stop-color="white" stop-opacity="0"/>
<stop offset="1" stop-color="white"/>
</linearGradient>
<linearGradient id="paint10_linear_421_816" x1="96.9468" y1="17.6302" x2="77.5335" y2="23.2903" gradientUnits="userSpaceOnUse">
<stop stop-color="#231F20"/>
<stop offset="1" stop-color="white"/>
</linearGradient>
<linearGradient id="paint11_linear_421_816" x1="60.2609" y1="91.5279" x2="76.464" y2="108.478" gradientUnits="userSpaceOnUse">
<stop stop-color="#231F20"/>
<stop offset="1" stop-color="white"/>
</linearGradient>
<linearGradient id="paint12_linear_421_816" x1="147.404" y1="88.9829" x2="153.034" y2="71.8352" gradientUnits="userSpaceOnUse">
<stop stop-color="#231F20"/>
<stop offset="1" stop-color="white"/>
</linearGradient>
<linearGradient id="paint13_linear_421_816" x1="105.791" y1="27.4426" x2="131.814" y2="33.4098" gradientUnits="userSpaceOnUse">
<stop stop-color="#231F20"/>
<stop offset="1" stop-color="white"/>
</linearGradient>
<linearGradient id="paint14_linear_421_816" x1="132.826" y1="93.9331" x2="114.679" y2="113.497" gradientUnits="userSpaceOnUse">
<stop stop-color="#231F20"/>
<stop offset="1" stop-color="white"/>
</linearGradient>
<linearGradient id="paint15_linear_421_816" x1="61.6014" y1="84.0621" x2="53.7832" y2="58.5801" gradientUnits="userSpaceOnUse">
<stop stop-color="#231F20"/>
<stop offset="1" stop-color="white"/>
</linearGradient>
<linearGradient id="paint16_linear_421_816" x1="111.482" y1="37.0208" x2="103.267" y2="45.2618" gradientUnits="userSpaceOnUse">
<stop stop-color="#231F20"/>
<stop offset="1" stop-color="white"/>
</linearGradient>
<linearGradient id="paint17_linear_421_816" x1="67.0746" y1="74.3283" x2="78.3201" y2="77.3551" gradientUnits="userSpaceOnUse">
<stop stop-color="#231F20"/>
<stop offset="1" stop-color="white"/>
</linearGradient>
<linearGradient id="paint18_linear_421_816" x1="121.65" y1="94.0585" x2="118.649" y2="82.8347" gradientUnits="userSpaceOnUse">
<stop stop-color="#231F20"/>
<stop offset="1" stop-color="white"/>
</linearGradient>
<linearGradient id="paint19_linear_421_816" x1="104.528" y1="84.0768" x2="109.461" y2="77.2578" gradientUnits="userSpaceOnUse">
<stop stop-color="#231F20"/>
<stop offset="1" stop-color="white"/>
</linearGradient>
<linearGradient id="paint20_linear_421_816" x1="87.5146" y1="81.1249" x2="77.6389" y2="85.843" gradientUnits="userSpaceOnUse">
<stop stop-color="#231F20"/>
<stop offset="1" stop-color="white"/>
</linearGradient>
<linearGradient id="paint21_linear_421_816" x1="83.923" y1="64.7067" x2="86.9728" y2="71.0529" gradientUnits="userSpaceOnUse">
<stop stop-color="#231F20"/>
<stop offset="1" stop-color="white"/>
</linearGradient>
<linearGradient id="paint22_linear_421_816" x1="98.1519" y1="45.1229" x2="96.0485" y2="37.8429" gradientUnits="userSpaceOnUse">
<stop stop-color="#231F20"/>
<stop offset="1" stop-color="white"/>
</linearGradient>
<linearGradient id="paint23_linear_421_816" x1="120.977" y1="78.4584" x2="127.095" y2="79.8684" gradientUnits="userSpaceOnUse">
<stop stop-color="#231F20"/>
<stop offset="1" stop-color="white"/>
</linearGradient>
<linearGradient id="paint24_linear_421_816" x1="111.38" y1="57.826" x2="103.619" y2="56.4158" gradientUnits="userSpaceOnUse">
<stop stop-color="#231F20"/>
<stop offset="1" stop-color="white"/>
</linearGradient>
</defs>
</svg>
