<svg xmlns:xlink="http://www.w3.org/1999/xlink" width="396" height="75" viewBox="0 0 396 75" fill="none" xmlns="http://www.w3.org/2000/svg" class="main-row-componentstyles__StyledLogo-grqa2y-3 kmMtfp"><path d="M110.769 53.0466C103.466 53.0466 98.9404 46.4921 98.9404 37.4234C98.9404 28.4446 102.749 21.7553 110.724 21.7553C115.966 21.7553 119.416 25.1224 120.044 29.5669H132.231C131.603 24.0449 129.139 19.1964 124.838 15.964C121.343 13.2703 116.504 11.6093 110.769 11.6093C96.0728 11.6093 86.5293 22.743 86.5293 37.4234C86.5293 52.1936 96.3865 63.0131 110.859 63.0131C117.803 63.0131 122.866 61.0827 126.63 57.4013C129.99 54.169 132.231 49.6795 132.544 44.7861H120.357C119.82 49.5898 116.235 53.0466 110.769 53.0466Z" fill="#262626"></path><path d="M155.037 25.6611C143.746 25.6611 136.174 33.7421 136.174 44.382C136.174 55.0219 143.746 63.1029 155.037 63.1029C166.417 63.1029 173.855 55.0219 173.855 44.382C173.855 33.7421 166.417 25.6611 155.037 25.6611ZM154.992 55.0668C150.108 55.0668 147.554 50.8019 147.554 44.382C147.554 37.9621 150.108 33.6074 154.992 33.6074C159.876 33.6074 162.519 37.9621 162.519 44.382C162.475 50.8019 159.876 55.0668 154.992 55.0668Z" fill="#262626"></path><path d="M189.797 21.9037C192.194 19.5018 192.194 15.6076 189.797 13.2057C187.399 10.8038 183.513 10.8038 181.116 13.2057C178.719 15.6076 178.719 19.5018 181.116 21.9037C183.513 24.3056 187.399 24.3056 189.797 21.9037Z" fill="#262626"></path><path d="M175.692 34.5503H180.396V61.9806H191.598V26.604H175.692V34.5503Z" fill="#262626"></path><path d="M219.153 25.5713C214.27 25.5713 210.864 27.6364 208.266 31.4524H208.042V26.6039H197.244V61.9356H208.49V42.4066C208.49 38.0519 210.954 34.9542 214.673 34.9542C218.347 34.9542 220.184 37.5131 220.184 41.2394V61.9356H231.43V38.9498C231.43 31.0933 226.86 25.5713 219.153 25.5713Z" fill="#262626"></path><path d="M257.775 12.5968H236.762V61.9356H257.014C263.197 61.9356 268.17 60.3643 272.024 57.4461C277.535 53.2261 280.581 46.2675 280.581 37.558C280.581 22.4735 271.396 12.5968 257.775 12.5968ZM256.118 51.6997H248.949V22.8327H256.252C263.914 22.8327 268.26 28.624 268.26 37.6029C268.215 46.6266 264.093 51.6997 256.118 51.6997Z" fill="#262626"></path><path d="M313.871 30.2402C310.825 27.5017 306.837 25.8406 301.819 25.8406C291.065 25.8406 283.717 33.9215 283.717 44.4717C283.717 55.1565 290.886 63.2375 302.536 63.2375C307.016 63.2375 310.6 62.0702 313.558 60.0051C316.649 57.8502 318.71 54.8422 319.472 51.6548H308.539C307.554 53.8546 305.627 55.1565 302.67 55.1565C298.055 55.1565 295.456 52.1935 294.739 47.4347H320.099C320.144 40.2067 318.083 34.1011 313.871 30.2402ZM294.784 40.7006C295.546 36.4805 297.741 33.7869 301.998 33.7869C305.627 33.7869 308.271 36.4805 308.674 40.7006H294.784Z" fill="#262626"></path><path d="M342.233 39.8477C337.752 39.0396 333.765 38.6804 333.765 36.2112C333.765 34.0114 335.915 32.9788 338.648 32.9788C341.74 32.9788 343.891 33.9665 344.294 37.1091H354.644C354.106 30.1505 348.73 25.7958 338.738 25.7958C330.404 25.7958 323.504 29.6567 323.504 37.1091C323.504 45.4145 330.046 47.0307 336.184 48.0633C340.889 48.8714 345.145 49.2306 345.145 52.418C345.145 54.7076 342.995 55.9198 339.634 55.9198C335.915 55.9198 333.585 54.2138 333.137 50.6672H322.519C322.877 58.4788 329.329 63.2375 339.679 63.2375C348.909 63.2375 355.719 59.242 355.719 51.5202C355.764 42.4964 348.461 40.8802 342.233 39.8477Z" fill="#262626"></path><path d="M382.155 39.8925L394.566 26.6038H381.617L371.133 38.5457V12.5968H360.066V61.9804H371.133V51.116L374.538 47.5245L383.006 61.9804H396L382.155 39.8925Z" fill="#262626"></path><path d="M37.1542 40.7009C39.0349 40.7009 40.5594 39.1733 40.5594 37.2889C40.5594 35.4045 39.0349 33.877 37.1542 33.877C35.2736 33.877 33.749 35.4045 33.749 37.2889C33.749 39.1733 35.2736 40.7009 37.1542 40.7009Z" fill="#F8BF1E"></path><path d="M64.3066 40.7009C66.1872 40.7009 67.7118 39.1733 67.7118 37.2889C67.7118 35.4045 66.1872 33.877 64.3066 33.877C62.4259 33.877 60.9014 35.4045 60.9014 37.2889C60.9014 39.1733 62.4259 40.7009 64.3066 40.7009Z" fill="#F8BF1E"></path><path d="M64.3066 67.9515C66.1872 67.9515 67.7118 66.4239 67.7118 64.5395C67.7118 62.6552 66.1872 61.1276 64.3066 61.1276C62.4259 61.1276 60.9014 62.6552 60.9014 64.5395C60.9014 66.4239 62.4259 67.9515 64.3066 67.9515Z" fill="#F8BF1E"></path><path d="M74.2978 9.40948C73.9393 4.42622 69.9517 0.385744 64.9783 0.0265903C61.7971 -0.197881 58.9295 1.01426 56.9133 3.0794C55.3899 4.65069 53.3289 5.59347 51.1334 5.59347H50.3269C48.0867 5.59347 45.9808 4.65069 44.4126 3.0345C42.5756 1.14894 40.0217 0.0265903 37.199 0.0265903C34.3762 0.0265903 31.8223 1.19384 29.9853 3.0345C28.4171 4.65069 26.3113 5.59347 24.071 5.59347H23.3093C21.1139 5.59347 19.008 4.74048 17.4846 3.16919C17.171 2.85493 16.8573 2.54067 16.5437 2.2713C12.7353 -0.8264 7.13459 -0.736612 3.46056 2.54067C-0.975169 6.44646 -1.15439 13.2704 2.9677 17.4006C3.01251 17.4455 3.05731 17.4904 3.10212 17.5353C4.71511 19.0617 5.56641 21.2167 5.56641 23.4165V24.1797C5.56641 26.4244 4.6255 28.5344 3.0125 30.1057C1.13068 31.9464 0.0105495 34.5053 0.0105495 37.3337C0.0105495 40.162 1.17549 42.721 3.0125 44.5617C4.6255 46.133 5.56641 48.243 5.56641 50.4877V51.5203C5.56641 53.7201 4.6255 55.7852 3.05731 57.3116C1.08588 59.2421 -0.123866 61.9806 0.0105495 64.9885C0.234576 70.286 4.53588 74.551 9.77811 74.7306C12.8249 74.8204 15.558 73.6082 17.4846 71.588C19.008 70.0167 21.069 69.029 23.2645 69.029H24.1158C26.3113 69.029 28.3723 69.9718 29.8957 71.588C31.9119 73.698 34.8243 74.9101 38.0055 74.6857C42.9788 74.3265 47.0113 70.286 47.3698 65.2579C47.773 59.287 43.1133 54.3486 37.2438 54.3486C34.4658 54.3486 31.9119 55.4709 30.0749 57.3116C28.5067 58.8829 26.4009 59.8257 24.2054 59.8257H23.2645C21.069 59.8257 18.9184 58.9727 17.3502 57.3565C17.3054 57.3116 17.3054 57.3116 17.2606 57.2667C15.6476 55.6954 14.7067 53.5854 14.7067 51.3407V50.4428C14.7067 48.1981 15.6476 46.0881 17.2606 44.5168C19.1424 42.6761 20.2626 40.1171 20.2626 37.2888C20.2626 34.4605 19.0976 31.9015 17.2606 30.0608C15.6476 28.4895 14.7067 26.3795 14.7067 24.1348V23.3267C14.7067 21.082 15.6476 18.9719 17.2158 17.4006C17.2606 17.3558 17.2606 17.3558 17.3054 17.3109C17.3502 17.266 17.3502 17.266 17.395 17.2211C18.9632 15.6498 21.069 14.707 23.3093 14.707H24.1158C26.3561 14.707 28.4619 15.6498 30.0301 17.266C31.8671 19.1515 34.421 20.2739 37.2438 20.2739C40.0665 20.2739 42.6204 19.1066 44.4574 17.266C46.0256 15.6498 48.1315 14.707 50.3717 14.707H51.0886C53.3289 14.707 55.4347 15.6498 57.0029 17.266C58.8399 19.1515 61.3938 20.2739 64.2166 20.2739C70.0413 20.3188 74.701 15.3804 74.2978 9.40948Z" fill="#F8BF1E"></path></svg>