<svg width="185" height="51" viewBox="0 0 185 51" fill="none" xmlns="http://www.w3.org/2000/svg">
<path d="M105.071 17.8687C105.071 12.5453 105.163 7.58911 105.439 3L91.3958 5.66168V6.94663L92.7726 7.1302C93.7822 7.22198 94.4247 7.58911 94.7918 8.1398C95.1589 8.78228 95.4343 9.7001 95.6178 11.0768C95.8014 13.7385 95.985 19.7961 95.8932 29.3415C95.8932 38.7951 95.8014 44.7609 95.6178 47.0554C100.666 48.1568 104.612 48.6157 107.55 48.6157C113.056 48.6157 117.37 47.0554 120.491 43.8431C123.611 40.7225 125.263 36.3169 125.263 30.9018C125.263 26.588 124.07 23.0085 121.684 20.1633C119.298 17.318 116.269 15.9413 112.689 15.9413C110.303 15.9413 107.825 16.5838 105.071 17.8687ZM105.347 46.1376C105.163 43.2006 104.98 34.3895 104.98 19.9797C105.806 19.7044 106.907 19.5208 108.284 19.5208C110.487 19.5208 112.23 20.6222 113.515 22.9167C114.8 25.2113 115.443 27.9648 115.443 31.4525C115.443 35.7662 114.709 39.254 113.24 42.191C111.771 45.0362 109.936 46.5048 107.641 46.5048C106.907 46.3212 106.173 46.2294 105.347 46.1376ZM38.7129 3.91782H2V5.75347L3.92743 5.93703C5.39594 6.21238 6.40554 6.76307 7.04802 7.58911C7.6905 8.50693 8.05762 9.97545 8.14941 11.9947C8.88366 21.9071 8.88366 31.1771 8.14941 39.7129C7.96584 41.7321 7.59871 43.2006 7.04802 44.1184C6.40554 45.0362 5.39594 45.5869 3.92743 45.7705L2 46.0458V47.8815H25.6798V46.0458L23.2017 45.8623C21.7332 45.6787 20.7236 45.0362 20.0811 44.2102C19.4386 43.2924 19.0715 41.8239 18.9797 39.8047C18.7044 36.1334 18.5208 31.9114 18.5208 27.2305L23.477 27.3223C26.1387 27.4141 27.9744 29.4333 28.8922 33.4717H30.7278V18.5112H28.8922C27.9744 22.4578 26.2305 24.477 23.477 24.5688L18.5208 24.6606C18.5208 16.4002 18.7044 10.5261 18.9797 6.94663H26.2305C31.3703 6.94663 34.858 10.2508 36.8772 16.8591L39.08 16.2166L38.7129 3.91782ZM34.3991 32.1867C34.3991 36.9594 35.7758 40.906 38.4375 44.0266C41.0992 47.1472 45.0458 48.6157 50.0021 48.6157C54.9583 48.6157 58.9967 47.0554 61.9338 43.8431C64.8708 40.7225 66.2475 36.7758 66.2475 32.0032C66.2475 27.2305 64.8708 23.2839 62.2091 20.1633C59.5474 17.0427 55.6008 15.5742 50.6446 15.5742C45.6883 15.5742 41.6499 17.1345 38.7129 20.3468C35.7758 23.4674 34.3991 27.4141 34.3991 32.1867ZM54.8665 21.7236C55.9679 24.3852 56.4268 27.873 56.4268 32.095C56.4268 41.8239 54.4076 46.5965 50.461 46.5965C48.4418 46.5965 46.8815 45.2198 45.7801 42.4663C44.6787 39.7129 44.2198 36.2252 44.2198 32.095C44.2198 22.4578 46.239 17.6851 50.1856 17.6851C52.2049 17.5934 53.7651 18.9701 54.8665 21.7236ZM132.422 44.0266C135.451 47.0554 139.306 48.6157 143.895 48.6157C146.741 48.6157 149.219 48.0651 151.421 46.8719C153.624 45.7705 155.368 44.3938 156.561 42.7417L155.643 41.6403C153.624 43.2006 151.33 43.9349 148.668 43.9349C144.997 43.9349 142.151 42.7417 140.224 40.2636C138.205 37.7854 137.287 34.6649 137.471 30.6264H157.112C157.112 26.2209 156.011 22.6414 153.716 19.7961C151.421 17.0427 148.209 15.6659 144.079 15.6659C138.939 15.6659 134.992 17.318 132.147 20.5304C129.302 23.7428 127.925 27.6894 127.925 32.3703C127.925 37.143 129.394 40.9978 132.422 44.0266ZM139.214 20.9893C140.224 18.7865 141.509 17.6851 143.253 17.6851C146.006 17.6851 147.383 21.1729 147.383 28.2401L137.654 28.4237C137.746 25.6702 138.205 23.1921 139.214 20.9893ZM181.801 17.318C179.323 16.2166 176.203 15.5742 172.44 15.5742C168.585 15.5742 165.556 16.5838 163.261 18.5112C160.967 20.4386 159.774 22.825 159.774 25.6702C159.774 28.1483 160.508 30.0757 161.885 31.4525C163.261 32.8292 165.464 34.0224 168.309 35.032C170.879 35.9498 172.715 36.8676 173.633 37.6937C174.551 38.6115 175.101 39.6211 175.101 40.9978C175.101 42.2828 174.642 43.4759 173.633 44.3938C172.715 45.4034 171.43 45.8623 169.778 45.8623C165.739 45.8623 162.711 42.9252 160.6 37.0512L159.039 37.5101L159.406 46.6883C162.711 47.9733 166.382 48.6157 170.42 48.6157C174.642 48.6157 177.855 47.6979 180.241 45.7705C182.627 43.9349 183.821 41.2732 183.821 37.969C183.821 35.7662 183.27 33.9306 182.077 32.5539C180.883 31.1771 178.956 29.984 176.203 28.8826C173.174 27.7812 171.063 26.7716 169.961 25.8538C168.86 24.9359 168.309 23.8346 168.309 22.4578C168.309 21.0811 168.676 19.9797 169.502 19.0619C170.329 18.1441 171.338 17.7769 172.623 17.7769C176.294 17.7769 178.956 20.4386 180.608 25.6702L182.168 25.2113L181.801 17.318ZM93.5068 16.492C92.2219 15.8495 90.8452 15.5742 89.2849 15.5742C87.7246 15.5742 86.1643 16.2166 84.4204 17.5016C82.6765 18.7865 81.3916 20.5304 80.382 22.9167L80.4738 15.5742L66.5229 18.3276V19.6126L67.8996 19.7044C69.6435 19.8879 70.6531 21.2647 70.8366 23.7428C71.3873 29.4333 71.3873 35.4909 70.8366 41.9156C70.6531 44.3938 69.6435 45.6787 67.8996 45.9541L66.5229 46.1376V47.8815H85.9807V46.1376L83.5026 45.9541C81.7587 45.7705 80.7491 44.3938 80.5655 41.9156C80.0149 36.5923 79.9231 30.9018 80.382 25.0277C80.9327 24.1099 82.1258 23.5592 83.9615 23.3756C85.7971 23.1921 87.9081 23.7428 90.1109 25.0277L93.5068 16.492Z" fill="black"/>
</svg>
