<svg width="322" height="294" viewBox="0 0 322 294" fill="none" xmlns="http://www.w3.org/2000/svg">
<path fill-rule="evenodd" clip-rule="evenodd" d="M231.544 55.8792L254.23 59.8041C251.732 54.8562 248.809 50.0475 245.448 45.4197C225.044 17.333 193.248 2.41272 160.993 2.39185V19.7756C165.509 19.7825 170.06 20.1375 174.612 20.8612C197.563 24.4938 217.723 36.8531 231.377 55.6496C231.432 55.7261 231.488 55.8027 231.544 55.8862V55.8792ZM145.14 3.5888C129.204 6.02448 113.588 12.1972 99.6486 22.3296C81.0957 35.8023 68.298 54.2508 61.7287 74.5086L78.2634 79.881C83.8794 62.4834 94.7981 47.3544 109.871 36.4008C117.464 30.8822 125.738 26.6999 134.416 23.9023L145.14 3.5888ZM243.764 79.8671L260.292 74.4947C272.331 111.503 262.769 152.993 234.453 180.961L231.182 158.226C239.296 147.189 244.71 134.301 246.916 120.383C249.101 106.59 247.974 92.7762 243.764 79.8671ZM147.395 192.694C142.725 191.957 138.174 190.85 133.769 189.403L113.128 199.549C147.061 217.023 189.372 215.186 222.358 191.219L212.135 177.141C193.338 190.802 170.346 196.32 147.395 192.68V192.694ZM74.0045 106.437C73.8931 124.844 79.6135 142.742 90.6297 157.906C96.0786 165.408 102.557 171.873 109.837 177.176L99.6208 191.233C90.9846 184.956 83.1695 177.238 76.5515 168.136C59.5087 144.67 53.6562 116.493 57.9847 89.9647L74.0045 106.437Z" fill="url(#paint0_linear_391_760)"/>
<path d="M161.271 3.08775C177.061 3.20606 193.255 6.97091 207.354 13.9996C222.135 21.3692 235.114 32.3715 244.884 45.8234C247.898 49.971 250.612 54.3552 252.971 58.8786L231.94 55.239C218.175 36.2894 197.855 23.8327 174.723 20.1723C170.429 19.4903 166.052 19.1214 161.689 19.0797L161.271 3.08775ZM143.873 4.49348L133.929 23.3247C125.195 26.171 116.963 30.3812 109.461 35.8371C94.5128 46.7002 83.5801 61.6135 77.818 79.0042L62.4942 74.4112C69.3419 53.7497 82.3971 35.7188 100.059 22.8932C113.024 13.4637 128.146 7.12401 143.873 4.49348ZM259.721 75.0027C265.427 92.9571 266.235 112.526 261.83 130.954C257.431 149.339 248.148 166.09 234.947 179.486L231.913 158.407C240.006 147.321 245.427 134.217 247.605 120.487C249.77 106.833 248.767 93.319 244.641 80.3125L259.735 75.0375M58.4579 91.447L73.3085 106.715C73.2529 125.282 79.0359 143.097 90.0242 158.254C90.0381 158.275 90.0521 158.296 90.066 158.317C95.3757 165.624 101.702 172.012 108.862 177.322L99.7947 190.495C91.256 184.197 83.4061 176.382 77.1152 167.725C61.0049 145.547 54.4008 118.511 58.4579 91.447ZM211.982 178.108L221.724 190.815C204.014 203.509 182.844 210.461 161.097 210.461C145.043 210.461 129.023 206.696 114.687 199.556L133.825 190.147C138.209 191.574 142.732 192.66 147.29 193.376C147.325 193.376 147.36 193.383 147.395 193.383C147.409 193.383 147.416 193.383 147.43 193.383C151.995 194.1 156.629 194.462 161.208 194.462C179.476 194.462 197.02 188.811 211.989 178.101M160.993 2.39185V19.7756C165.509 19.7825 170.06 20.1375 174.612 20.8612C197.563 24.4938 217.723 36.8531 231.377 55.6496C231.432 55.7261 231.488 55.8027 231.544 55.8862L254.23 59.8041C251.732 54.8562 248.809 50.0475 245.448 45.4197C225.044 17.333 193.248 2.41272 160.993 2.39185ZM145.14 3.5888C129.204 6.02448 113.588 12.1972 99.6486 22.3296C81.0957 35.8023 68.298 54.2508 61.7287 74.5086L78.2634 79.881C83.8794 62.4834 94.7981 47.3544 109.871 36.4008C117.464 30.8822 125.738 26.6999 134.416 23.9023L145.14 3.5888ZM260.292 74.4947L243.764 79.8671C247.974 92.7762 249.101 106.59 246.916 120.383C244.71 134.301 239.296 147.189 231.182 158.226L234.453 180.961C262.769 152.993 272.331 111.503 260.292 74.4947ZM57.9847 89.9647C53.6562 116.493 59.5087 144.67 76.5515 168.136C83.1695 177.238 90.9846 184.956 99.6208 191.233L109.837 177.176C102.557 171.873 96.0786 165.408 90.6297 157.913C79.6135 142.742 73.8931 124.844 74.0045 106.437L57.9847 89.9647ZM212.135 177.141C197.117 188.053 179.413 193.773 161.202 193.773C156.622 193.773 152.009 193.411 147.395 192.68V192.694C142.725 191.957 138.174 190.85 133.769 189.403L113.128 199.549C128 207.211 144.493 211.157 161.097 211.157C182.371 211.157 203.833 204.678 222.358 191.219L212.135 177.141Z" fill="white"/>
<path d="M197.235 116.346L167.75 106.764L224.452 88.3362L227.57 85.1281L223.165 84.3695L166.455 102.79L184.681 77.7097L182.385 77.313L181.299 75.2601L163.08 100.341V40.7153L160.993 36.7556L158.905 40.7153V100.341L140.672 75.2462L139.587 77.2991L137.297 77.7028L155.53 102.79L98.8204 84.3695L94.4153 85.1281L97.5329 88.3362L154.235 106.764L124.75 116.346L126.364 118.01L126.03 120.32L155.53 110.73L120.484 158.971L119.844 163.397L123.859 161.427L158.905 113.187V144.19L160.993 143.167L163.08 144.19V113.187L198.126 161.427L202.142 163.397L201.501 158.971L166.455 110.73L195.941 120.313L195.614 118.01L197.235 116.346Z" fill="url(#paint1_radial_391_760)"/>
<path d="M212.573 123.521L212.886 123.201L260.187 74.5294L193.311 62.9565L192.865 62.8799L192.656 62.4832L160.993 2.45435L129.322 62.4832L129.113 62.8799L128.668 62.9565L61.7913 74.5294L109.092 123.201L109.405 123.521L109.343 123.967L99.6834 191.142L160.589 161.198L160.993 160.996L161.396 161.198L222.302 191.142L212.643 123.967L212.58 123.521H212.573ZM168.453 146.834L168.049 146.632L160.986 143.16L153.922 146.632L153.519 146.827L119.837 163.39L125.181 126.221L125.244 125.776L126.357 117.996L120.881 112.359L120.568 112.032L94.4084 85.1141L131.417 78.7118L131.862 78.6352L139.587 77.2852L143.254 70.3609L143.477 69.9364L160.993 36.7417L178.502 69.9294L178.711 70.3261L182.385 77.2921L190.144 78.6352L190.59 78.7118L227.57 85.1141L201.411 112.025L201.098 112.345L195.607 117.989L196.728 125.783L196.79 126.228L202.135 163.383L168.453 146.82V146.834Z" fill="url(#paint2_linear_391_760)"/>
<path d="M221.669 191.316L211.926 123.507C211.912 123.396 211.947 123.284 212.024 123.208L212.344 122.888L245.692 88.4613L246.193 88.9484L212.643 123.577L212.685 123.848L222.365 191.219L221.676 191.316H221.669Z" fill="white"/>
<path d="M99.6209 191.233L99.3147 190.606L160.534 160.627C160.631 160.578 160.742 160.578 160.833 160.627L161.236 160.822L204.536 181.636L204.23 182.262L160.68 161.323L160.429 161.441L99.6139 191.226L99.6209 191.233Z" fill="white"/>
<path d="M103.24 171.309L102.551 171.212L108.73 123.577L108.535 123.382L61.7288 74.5084L62.2298 74.0212L109.35 123.215C109.426 123.291 109.461 123.403 109.447 123.507L109.384 123.953L103.247 171.309H103.24Z" fill="white"/>
<path d="M81.7638 71.7807L81.6455 71.0917L128.577 62.5042L160.993 2.39185L161.605 2.71892L129.113 62.9844C129.065 63.0818 128.967 63.1445 128.863 63.1653L128.417 63.2419L81.7638 71.7807Z" fill="white"/>
<path d="M260.173 75.1837L192.51 63.1654C192.406 63.1445 192.309 63.0819 192.26 62.9845L192.051 62.5878L169.761 20.7221L170.374 20.395L192.796 62.5113L193.074 62.56L260.292 74.5017L260.173 75.1907V75.1837Z" fill="white"/>
<path d="M128.668 62.9567L81.6454 71.0918C81.555 71.3006 81.4645 71.5094 81.374 71.7112L94.4083 85.1213L131.417 78.719L131.862 78.6424L139.587 77.2923L129.113 62.8732L128.668 62.9497V62.9567Z" fill="url(#paint3_linear_391_760)"/>
<path d="M160.993 36.735V36.7559L178.502 69.9437L178.71 70.3404L182.385 77.3064L192.872 62.8802L192.663 62.4836L170.415 20.3117C170.179 20.2838 169.935 20.2629 169.698 20.2421L160.993 36.735Z" fill="url(#paint4_linear_391_760)"/>
<path d="M227.577 85.1278L201.418 112.045L201.105 112.366L195.614 118.009L212.58 123.521L212.893 123.201L246.186 88.9483C246.144 88.7396 246.095 88.5308 246.053 88.322L227.584 85.1278H227.577Z" fill="url(#paint5_linear_391_760)"/>
<path d="M202.135 163.397L168.46 146.834L168.056 146.632L160.993 143.16V160.996L161.396 161.198L204.236 182.263C204.424 182.152 204.612 182.047 204.8 181.943L202.135 163.397Z" fill="url(#paint6_linear_391_760)"/>
<path d="M109.405 123.521L109.343 123.967L102.551 171.212C102.718 171.358 102.885 171.504 103.045 171.65L119.844 163.39L125.188 126.221L125.251 125.776L126.357 118.003L109.405 123.514V123.521Z" fill="url(#paint7_linear_391_760)"/>
<path d="M134.416 23.9091L145.14 3.58862C129.204 6.0243 113.588 12.197 99.6487 22.3294L109.872 36.4076C117.464 30.889 125.738 26.7066 134.416 23.9091Z" fill="url(#paint8_linear_391_760)"/>
<path d="M231.377 55.6496C231.433 55.7261 231.488 55.8027 231.544 55.8862L254.23 59.8111C251.732 54.8632 248.809 50.0545 245.448 45.4267C238.823 36.3104 231.001 28.5928 222.351 22.3087L212.135 36.366C219.428 41.6688 225.921 48.1477 231.37 55.6496H231.377Z" fill="url(#paint9_linear_391_760)"/>
<path d="M234.46 180.962C246.582 168.992 255.253 154.538 260.278 139.019L243.75 133.647C240.89 142.513 236.652 150.787 231.189 158.226L234.46 180.962Z" fill="url(#paint10_linear_391_760)"/>
<path d="M147.395 192.695C142.725 191.957 138.174 190.851 133.769 189.403L113.128 199.549C127.972 207.197 144.423 211.143 160.993 211.164V193.773C156.483 193.766 151.939 193.411 147.395 192.688V192.695Z" fill="url(#paint11_linear_391_760)"/>
<path d="M57.9848 89.9646C55.3404 106.186 56.5025 123.027 61.7009 139.026L78.2287 133.654C75.3755 124.899 73.9419 115.734 73.9976 106.444L57.9848 89.9646Z" fill="url(#paint12_linear_391_760)"/>
<path d="M24.473 253.444L24.7746 265.839H23.6503C23.1202 262.731 21.8131 260.236 19.729 258.353C17.6633 256.452 15.4238 255.501 13.0107 255.501C11.146 255.501 9.66526 256.004 8.56839 257.009C7.48981 257.996 6.95051 259.139 6.95051 260.437C6.95051 261.26 7.14246 261.991 7.52637 262.631C8.05652 263.49 8.90659 264.34 10.0766 265.181C10.9358 265.784 12.9193 266.854 16.0271 268.389C20.378 270.528 23.3121 272.548 24.8295 274.449C26.3285 276.351 27.0781 278.526 27.0781 280.976C27.0781 284.084 25.8624 286.762 23.431 289.01C21.0179 291.241 17.9466 292.356 14.2173 292.356C13.0473 292.356 11.9413 292.237 10.8992 291.999C9.85721 291.762 8.55011 291.314 6.97793 290.656C6.10044 290.29 5.37833 290.107 4.81162 290.107C4.33631 290.107 3.83358 290.29 3.30342 290.656C2.77327 291.021 2.34366 291.579 2.0146 292.328H1V278.288H2.0146C2.81897 282.237 4.36373 285.254 6.64887 287.338C8.9523 289.403 11.4294 290.436 14.0802 290.436C16.1276 290.436 17.7547 289.879 18.9612 288.764C20.1861 287.648 20.7985 286.35 20.7985 284.87C20.7985 283.992 20.5608 283.142 20.0855 282.319C19.6285 281.497 18.9247 280.72 17.974 279.989C17.0234 279.239 15.3416 278.27 12.9284 277.082C9.54644 275.418 7.11504 274.001 5.63427 272.831C4.1535 271.661 3.01093 270.354 2.20656 268.91C1.42047 267.466 1.02742 265.876 1.02742 264.139C1.02742 261.177 2.11515 258.654 4.29061 256.57C6.46606 254.486 9.20823 253.444 12.5171 253.444C13.7237 253.444 14.8937 253.591 16.0271 253.883C16.8863 254.102 17.9283 254.514 19.1532 255.117C20.3963 255.702 21.2646 255.995 21.7582 255.995C22.2335 255.995 22.6083 255.848 22.8825 255.556C23.1567 255.263 23.4127 254.559 23.6503 253.444H24.473Z" fill="url(#paint13_linear_391_760)"/>
<path d="M41.8127 256.461V265.839H47.9003V268.554H41.8127V284.376C41.8127 285.857 41.8767 286.817 42.0047 287.255C42.1509 287.676 42.3977 288.023 42.7451 288.297C43.0924 288.553 43.4123 288.681 43.7048 288.681C44.8931 288.681 46.0174 287.776 47.0777 285.966L47.9003 286.57C46.4196 290.08 44.0156 291.835 40.6884 291.835C39.0614 291.835 37.6812 291.387 36.5478 290.491C35.4326 289.577 34.7196 288.562 34.4089 287.447C34.2261 286.826 34.1346 285.144 34.1346 282.402V268.554H30.7892V267.594C33.0926 265.967 35.0487 264.258 36.6574 262.466C38.2845 260.675 39.7013 258.673 40.9078 256.461H41.8127Z" fill="url(#paint14_linear_391_760)"/>
<path d="M64.8836 287.694C61.7575 290.455 58.9514 291.835 56.4651 291.835C55.0026 291.835 53.7869 291.359 52.8181 290.409C51.8492 289.44 51.3647 288.233 51.3647 286.789C51.3647 284.833 52.2056 283.078 53.8875 281.524C55.5694 279.952 59.2347 277.868 64.8836 275.272V272.694C64.8836 270.757 64.7739 269.541 64.5545 269.047C64.3535 268.535 63.9604 268.097 63.3754 267.731C62.7904 267.347 62.1323 267.155 61.401 267.155C60.2128 267.155 59.2347 267.42 58.4669 267.95C57.9916 268.279 57.754 268.663 57.754 269.102C57.754 269.486 58.0099 269.961 58.5218 270.528C59.2164 271.314 59.5638 272.073 59.5638 272.804C59.5638 273.7 59.2256 274.468 58.5492 275.107C57.8911 275.729 57.0227 276.04 55.9441 276.04C54.7924 276.04 53.8235 275.692 53.0374 274.998C52.2696 274.303 51.8857 273.49 51.8857 272.557C51.8857 271.241 52.4067 269.989 53.4487 268.8C54.4908 267.594 55.9441 266.671 57.8088 266.031C59.6735 265.391 61.6113 265.071 63.6222 265.071C66.0536 265.071 67.9731 265.592 69.3808 266.634C70.8067 267.658 71.7299 268.773 72.1504 269.98C72.4063 270.747 72.5343 272.512 72.5343 275.272V285.226C72.5343 286.396 72.58 287.136 72.6714 287.447C72.7628 287.74 72.8999 287.959 73.0827 288.105C73.2655 288.252 73.4757 288.325 73.7134 288.325C74.1887 288.325 74.6732 287.987 75.1667 287.31L75.9894 287.968C75.0753 289.321 74.1247 290.308 73.1375 290.93C72.1686 291.533 71.0626 291.835 69.8195 291.835C68.357 291.835 67.2145 291.497 66.3918 290.82C65.5691 290.125 65.0664 289.083 64.8836 287.694ZM64.8836 285.692V277.109C62.6716 278.407 61.0263 279.797 59.9477 281.277C59.2347 282.265 58.8783 283.261 58.8783 284.266C58.8783 285.107 59.1799 285.848 59.7832 286.487C60.2402 286.981 60.88 287.228 61.7027 287.228C62.6167 287.228 63.6771 286.716 64.8836 285.692Z" fill="url(#paint15_linear_391_760)"/>
<path d="M89.8466 265.839V271.652C91.5467 269.002 93.0366 267.247 94.3163 266.387C95.596 265.51 96.83 265.071 98.0182 265.071C99.042 265.071 99.8555 265.391 100.459 266.031C101.08 266.652 101.391 267.539 101.391 268.691C101.391 269.916 101.089 270.866 100.486 271.543C99.9012 272.219 99.1882 272.557 98.3473 272.557C97.3784 272.557 96.5375 272.246 95.8245 271.625C95.1115 271.003 94.6911 270.656 94.5631 270.583C94.3803 270.473 94.1701 270.418 93.9324 270.418C93.4023 270.418 92.8995 270.619 92.4242 271.022C91.6747 271.643 91.108 272.53 90.7241 273.682C90.1391 275.455 89.8466 277.411 89.8466 279.55V285.445L89.874 286.981C89.874 288.023 89.938 288.69 90.066 288.983C90.2853 289.476 90.6052 289.842 91.0257 290.08C91.4645 290.299 92.1957 290.436 93.2195 290.491V291.478H79.3715V290.491C80.4866 290.4 81.2362 290.098 81.6201 289.586C82.0223 289.056 82.2233 287.676 82.2233 285.445V271.268C82.2233 269.806 82.1502 268.874 82.004 268.471C81.8212 267.96 81.5561 267.585 81.2087 267.347C80.8614 267.109 80.249 266.945 79.3715 266.854V265.839H89.8466Z" fill="url(#paint16_linear_391_760)"/>
<path d="M114.727 256.461V265.839H120.815V268.554H114.727V284.376C114.727 285.857 114.791 286.817 114.919 287.255C115.065 287.676 115.312 288.023 115.66 288.297C116.007 288.553 116.327 288.681 116.619 288.681C117.808 288.681 118.932 287.776 119.992 285.966L120.815 286.57C119.334 290.08 116.93 291.835 113.603 291.835C111.976 291.835 110.596 291.387 109.462 290.491C108.347 289.577 107.634 288.562 107.323 287.447C107.141 286.826 107.049 285.144 107.049 282.402V268.554H103.704V267.594C106.007 265.967 107.963 264.258 109.572 262.466C111.199 260.675 112.616 258.673 113.822 256.461H114.727Z" fill="url(#paint17_linear_391_760)"/>
<path d="M137.798 287.694C134.672 290.455 131.866 291.835 129.38 291.835C127.917 291.835 126.702 291.359 125.733 290.409C124.764 289.44 124.279 288.233 124.279 286.789C124.279 284.833 125.12 283.078 126.802 281.524C128.484 279.952 132.149 277.868 137.798 275.272V272.694C137.798 270.757 137.688 269.541 137.469 269.047C137.268 268.535 136.875 268.097 136.29 267.731C135.705 267.347 135.047 267.155 134.316 267.155C133.127 267.155 132.149 267.42 131.381 267.95C130.906 268.279 130.669 268.663 130.669 269.102C130.669 269.486 130.924 269.961 131.436 270.528C132.131 271.314 132.478 272.073 132.478 272.804C132.478 273.7 132.14 274.468 131.464 275.107C130.806 275.729 129.937 276.04 128.859 276.04C127.707 276.04 126.738 275.692 125.952 274.998C125.184 274.303 124.8 273.49 124.8 272.557C124.8 271.241 125.321 269.989 126.363 268.8C127.405 267.594 128.859 266.671 130.723 266.031C132.588 265.391 134.526 265.071 136.537 265.071C138.968 265.071 140.888 265.592 142.295 266.634C143.721 267.658 144.644 268.773 145.065 269.98C145.321 270.747 145.449 272.512 145.449 275.272V285.226C145.449 286.396 145.495 287.136 145.586 287.447C145.677 287.74 145.814 287.959 145.997 288.105C146.18 288.252 146.39 288.325 146.628 288.325C147.103 288.325 147.588 287.987 148.081 287.31L148.904 287.968C147.99 289.321 147.039 290.308 146.052 290.93C145.083 291.533 143.977 291.835 142.734 291.835C141.272 291.835 140.129 291.497 139.306 290.82C138.484 290.125 137.981 289.083 137.798 287.694ZM137.798 285.692V277.109C135.586 278.407 133.941 279.797 132.862 281.277C132.149 282.265 131.793 283.261 131.793 284.266C131.793 285.107 132.094 285.848 132.698 286.487C133.155 286.981 133.795 287.228 134.617 287.228C135.531 287.228 136.592 286.716 137.798 285.692Z" fill="url(#paint18_linear_391_760)"/>
<path d="M162.158 254.294V286.158C162.158 287.968 162.368 289.129 162.789 289.641C163.209 290.135 164.032 290.418 165.257 290.491V291.478H151.409V290.491C152.542 290.455 153.383 290.125 153.931 289.504C154.297 289.083 154.48 287.968 154.48 286.158V259.614C154.48 257.823 154.27 256.68 153.849 256.187C153.429 255.675 152.615 255.382 151.409 255.309V254.294H162.158Z" fill="url(#paint19_linear_391_760)"/>
<path d="M189.863 277.74H175.796C175.96 281.14 176.865 283.828 178.51 285.802C179.772 287.319 181.289 288.078 183.062 288.078C184.159 288.078 185.156 287.776 186.051 287.173C186.947 286.551 187.907 285.445 188.931 283.855L189.863 284.458C188.474 287.292 186.938 289.303 185.256 290.491C183.574 291.661 181.627 292.246 179.415 292.246C175.613 292.246 172.734 290.784 170.777 287.859C169.205 285.5 168.419 282.575 168.419 279.084C168.419 274.806 169.571 271.406 171.874 268.883C174.196 266.342 176.911 265.071 180.019 265.071C182.615 265.071 184.863 266.141 186.764 268.279C188.684 270.4 189.717 273.554 189.863 277.74ZM183.117 275.903C183.117 272.959 182.953 270.939 182.624 269.843C182.313 268.746 181.819 267.914 181.143 267.347C180.759 267.018 180.247 266.854 179.607 266.854C178.657 266.854 177.88 267.32 177.276 268.252C176.198 269.879 175.659 272.109 175.659 274.943V275.903H183.117Z" fill="url(#paint20_linear_391_760)"/>
<path d="M241.489 278.426L240.091 291.478H207.075V290.464H208.309C209.387 290.464 210.256 290.272 210.914 289.888C211.389 289.632 211.755 289.193 212.011 288.572C212.212 288.133 212.312 286.981 212.312 285.116V260.656C212.312 258.755 212.212 257.567 212.011 257.091C211.81 256.616 211.398 256.205 210.777 255.857C210.174 255.492 209.351 255.309 208.309 255.309H207.075V254.294H226.901V255.309H225.283C224.204 255.309 223.336 255.501 222.678 255.885C222.203 256.141 221.828 256.58 221.554 257.201C221.352 257.64 221.252 258.792 221.252 260.656V284.349C221.252 286.25 221.362 287.466 221.581 287.996C221.8 288.508 222.23 288.891 222.87 289.147C223.327 289.312 224.433 289.394 226.188 289.394H229.286C231.261 289.394 232.906 289.047 234.222 288.352C235.539 287.657 236.672 286.561 237.623 285.062C238.592 283.563 239.506 281.351 240.365 278.426H241.489Z" fill="url(#paint21_linear_391_760)"/>
<path d="M258.971 287.694C255.845 290.455 253.039 291.835 250.553 291.835C249.09 291.835 247.874 291.359 246.905 290.409C245.937 289.44 245.452 288.233 245.452 286.789C245.452 284.833 246.293 283.078 247.975 281.524C249.657 279.952 253.322 277.868 258.971 275.272V272.694C258.971 270.757 258.861 269.541 258.642 269.047C258.441 268.535 258.048 268.097 257.463 267.731C256.878 267.347 256.22 267.155 255.488 267.155C254.3 267.155 253.322 267.42 252.554 267.95C252.079 268.279 251.841 268.663 251.841 269.102C251.841 269.486 252.097 269.961 252.609 270.528C253.304 271.314 253.651 272.073 253.651 272.804C253.651 273.7 253.313 274.468 252.637 275.107C251.978 275.729 251.11 276.04 250.032 276.04C248.88 276.04 247.911 275.692 247.125 274.998C246.357 274.303 245.973 273.49 245.973 272.557C245.973 271.241 246.494 269.989 247.536 268.8C248.578 267.594 250.032 266.671 251.896 266.031C253.761 265.391 255.699 265.071 257.71 265.071C260.141 265.071 262.061 265.592 263.468 266.634C264.894 267.658 265.817 268.773 266.238 269.98C266.494 270.747 266.622 272.512 266.622 275.272V285.226C266.622 286.396 266.667 287.136 266.759 287.447C266.85 287.74 266.987 287.959 267.17 288.105C267.353 288.252 267.563 288.325 267.801 288.325C268.276 288.325 268.761 287.987 269.254 287.31L270.077 287.968C269.163 289.321 268.212 290.308 267.225 290.93C266.256 291.533 265.15 291.835 263.907 291.835C262.444 291.835 261.302 291.497 260.479 290.82C259.657 290.125 259.154 289.083 258.971 287.694ZM258.971 285.692V277.109C256.759 278.407 255.114 279.797 254.035 281.277C253.322 282.265 252.966 283.261 252.966 284.266C252.966 285.107 253.267 285.848 253.871 286.487C254.328 286.981 254.967 287.228 255.79 287.228C256.704 287.228 257.764 286.716 258.971 285.692Z" fill="url(#paint22_linear_391_760)"/>
<path d="M282.266 254.294V268.417C284.423 266.186 286.782 265.071 289.341 265.071C291.096 265.071 292.751 265.592 294.304 266.634C295.858 267.658 297.074 269.12 297.952 271.022C298.829 272.923 299.268 275.117 299.268 277.603C299.268 280.4 298.71 282.941 297.595 285.226C296.48 287.511 294.99 289.257 293.125 290.464C291.261 291.652 289.131 292.246 286.736 292.246C285.347 292.246 284.113 292.027 283.034 291.588C281.956 291.149 280.895 290.436 279.853 289.449L275.603 292.219H274.67V259.614C274.67 258.133 274.607 257.219 274.479 256.872C274.296 256.36 274.003 255.985 273.601 255.748C273.217 255.492 272.559 255.346 271.627 255.309V254.294H282.266ZM282.266 270.857V282.265C282.266 284.586 282.321 286.067 282.431 286.707C282.614 287.785 283.052 288.663 283.747 289.339C284.442 289.997 285.328 290.327 286.407 290.327C287.339 290.327 288.135 290.061 288.793 289.531C289.469 289.001 290.027 287.95 290.465 286.378C290.922 284.806 291.151 281.972 291.151 277.877C291.151 273.947 290.657 271.25 289.67 269.788C288.957 268.727 287.997 268.197 286.791 268.197C285.219 268.197 283.711 269.084 282.266 270.857Z" fill="url(#paint23_linear_391_760)"/>
<path d="M319.245 265.126L319.656 273.874H318.724C317.609 271.278 316.448 269.504 315.241 268.554C314.053 267.603 312.865 267.128 311.677 267.128C310.927 267.128 310.287 267.384 309.757 267.896C309.227 268.389 308.962 268.965 308.962 269.623C308.962 270.117 309.145 270.592 309.51 271.049C310.095 271.799 311.731 273.087 314.419 274.916C317.106 276.725 318.87 278.27 319.711 279.55C320.57 280.811 321 282.228 321 283.8C321 285.226 320.644 286.625 319.931 287.996C319.218 289.367 318.212 290.418 316.914 291.149C315.616 291.88 314.181 292.246 312.609 292.246C311.384 292.246 309.748 291.862 307.7 291.094C307.152 290.893 306.777 290.793 306.576 290.793C305.973 290.793 305.47 291.25 305.068 292.164H304.163L303.724 282.95H304.657C305.479 285.363 306.604 287.173 308.03 288.38C309.474 289.586 310.836 290.189 312.115 290.189C312.993 290.189 313.706 289.924 314.254 289.394C314.821 288.846 315.104 288.188 315.104 287.42C315.104 286.542 314.83 285.784 314.282 285.144C313.733 284.504 312.508 283.535 310.607 282.237C307.81 280.299 306 278.819 305.178 277.795C303.971 276.296 303.368 274.641 303.368 272.831C303.368 270.857 304.044 269.075 305.397 267.484C306.768 265.876 308.742 265.071 311.32 265.071C312.71 265.071 314.053 265.409 315.351 266.086C315.845 266.36 316.247 266.497 316.558 266.497C316.887 266.497 317.152 266.433 317.353 266.305C317.554 266.159 317.874 265.766 318.313 265.126H319.245Z" fill="url(#paint24_linear_391_760)"/>
<defs>
<linearGradient id="paint0_linear_391_760" x1="27.1908" y1="-12.0134" x2="440.573" y2="354.938" gradientUnits="userSpaceOnUse">
<stop stop-color="#667180"/>
<stop offset="0.03" stop-color="#7B8A98"/>
<stop offset="0.14" stop-color="#C4D0DD"/>
<stop offset="0.26" stop-color="#EFF7FF"/>
<stop offset="0.36" stop-color="#C1D0D7"/>
<stop offset="0.49" stop-color="#69717F"/>
<stop offset="0.57" stop-color="#A7B0BB"/>
<stop offset="0.61" stop-color="#C6D0D9"/>
<stop offset="0.74" stop-color="#F3F7FF"/>
<stop offset="0.84" stop-color="#C5D0D8"/>
<stop offset="1" stop-color="#68717F"/>
</linearGradient>
<radialGradient id="paint1_radial_391_760" cx="0" cy="0" r="1" gradientUnits="userSpaceOnUse" gradientTransform="translate(160.628 116.381) rotate(-90) scale(61.4694 64.6288)">
<stop stop-color="white"/>
<stop offset="0.23" stop-color="#F0F6FB"/>
<stop offset="0.71" stop-color="#909BA6"/>
<stop offset="1" stop-color="#1A1E24"/>
</radialGradient>
<linearGradient id="paint2_linear_391_760" x1="32.772" y1="-10.4965" x2="416.202" y2="362.934" gradientUnits="userSpaceOnUse">
<stop stop-color="#667180"/>
<stop offset="0.03" stop-color="#7B8A98"/>
<stop offset="0.14" stop-color="#C4D0DD"/>
<stop offset="0.26" stop-color="#EFF7FF"/>
<stop offset="0.36" stop-color="#C1D0D7"/>
<stop offset="0.49" stop-color="#69717F"/>
<stop offset="0.57" stop-color="#A7B0BB"/>
<stop offset="0.61" stop-color="#C6D0D9"/>
<stop offset="0.74" stop-color="#F3F7FF"/>
<stop offset="0.84" stop-color="#C5D0D8"/>
<stop offset="1" stop-color="#68717F"/>
</linearGradient>
<linearGradient id="paint3_linear_391_760" x1="92.8008" y1="82.4211" x2="109.503" y2="66.0673" gradientUnits="userSpaceOnUse">
<stop stop-color="#1E242C"/>
<stop offset="0.125" stop-color="#3A4656"/>
<stop offset="1" stop-color="#3A4656" stop-opacity="0"/>
</linearGradient>
<linearGradient id="paint4_linear_391_760" x1="160.638" y1="38.6279" x2="179.441" y2="49.0175" gradientUnits="userSpaceOnUse">
<stop stop-color="#1E242C"/>
<stop offset="0.125" stop-color="#3A4656"/>
<stop offset="1" stop-color="#3A4656" stop-opacity="0"/>
</linearGradient>
<linearGradient id="paint5_linear_391_760" x1="228.503" y1="86.2485" x2="223.979" y2="110.257" gradientUnits="userSpaceOnUse">
<stop stop-color="#1E242C"/>
<stop offset="0.125" stop-color="#3A4656"/>
<stop offset="1" stop-color="#3A4656" stop-opacity="0"/>
</linearGradient>
<linearGradient id="paint6_linear_391_760" x1="201.71" y1="164.886" x2="180.833" y2="168.017" gradientUnits="userSpaceOnUse">
<stop stop-color="#1E242C"/>
<stop offset="0.125" stop-color="#3A4656"/>
<stop offset="1" stop-color="#3A4656" stop-opacity="0"/>
</linearGradient>
<linearGradient id="paint7_linear_391_760" x1="116.462" y1="164.538" x2="109.503" y2="149.228" gradientUnits="userSpaceOnUse">
<stop stop-color="#1E242C"/>
<stop offset="0.125" stop-color="#3A4656"/>
<stop offset="1" stop-color="#3A4656" stop-opacity="0"/>
</linearGradient>
<linearGradient id="paint8_linear_391_760" x1="140.819" y1="11.7866" x2="107.067" y2="27.7924" gradientUnits="userSpaceOnUse">
<stop stop-color="#3A4656"/>
<stop offset="1" stop-color="#3A4554" stop-opacity="0"/>
</linearGradient>
<linearGradient id="paint9_linear_391_760" x1="241.377" y1="57.0204" x2="217.368" y2="32.3158" gradientUnits="userSpaceOnUse">
<stop stop-color="#3A4656"/>
<stop offset="1" stop-color="#3A4554" stop-opacity="0"/>
</linearGradient>
<linearGradient id="paint10_linear_391_760" x1="233.374" y1="168.713" x2="252.859" y2="139.833" gradientUnits="userSpaceOnUse">
<stop stop-color="#29313C"/>
<stop offset="1" stop-color="#29313C" stop-opacity="0"/>
</linearGradient>
<linearGradient id="paint11_linear_391_760" x1="125.509" y1="195.158" x2="156.824" y2="201.073" gradientUnits="userSpaceOnUse">
<stop stop-color="#29313C"/>
<stop offset="1" stop-color="#29313C" stop-opacity="0"/>
</linearGradient>
<linearGradient id="paint12_linear_391_760" x1="65.6606" y1="99.4708" x2="67.7483" y2="133.222" gradientUnits="userSpaceOnUse">
<stop stop-color="#3A4656"/>
<stop offset="1" stop-color="#3A4554" stop-opacity="0"/>
</linearGradient>
<linearGradient id="paint13_linear_391_760" x1="11.8057" y1="272.683" x2="323.159" y2="272.683" gradientUnits="userSpaceOnUse">
<stop stop-color="white"/>
<stop offset="1" stop-color="#DCE4EB"/>
</linearGradient>
<linearGradient id="paint14_linear_391_760" x1="11.8057" y1="272.683" x2="323.159" y2="272.683" gradientUnits="userSpaceOnUse">
<stop stop-color="white"/>
<stop offset="1" stop-color="#DCE4EB"/>
</linearGradient>
<linearGradient id="paint15_linear_391_760" x1="11.8057" y1="272.683" x2="323.159" y2="272.683" gradientUnits="userSpaceOnUse">
<stop stop-color="white"/>
<stop offset="1" stop-color="#DCE4EB"/>
</linearGradient>
<linearGradient id="paint16_linear_391_760" x1="11.8057" y1="272.683" x2="323.159" y2="272.683" gradientUnits="userSpaceOnUse">
<stop stop-color="white"/>
<stop offset="1" stop-color="#DCE4EB"/>
</linearGradient>
<linearGradient id="paint17_linear_391_760" x1="11.8057" y1="272.683" x2="323.159" y2="272.683" gradientUnits="userSpaceOnUse">
<stop stop-color="white"/>
<stop offset="1" stop-color="#DCE4EB"/>
</linearGradient>
<linearGradient id="paint18_linear_391_760" x1="11.8057" y1="272.683" x2="323.159" y2="272.683" gradientUnits="userSpaceOnUse">
<stop stop-color="white"/>
<stop offset="1" stop-color="#DCE4EB"/>
</linearGradient>
<linearGradient id="paint19_linear_391_760" x1="11.8057" y1="272.683" x2="323.159" y2="272.683" gradientUnits="userSpaceOnUse">
<stop stop-color="white"/>
<stop offset="1" stop-color="#DCE4EB"/>
</linearGradient>
<linearGradient id="paint20_linear_391_760" x1="11.8057" y1="272.683" x2="323.159" y2="272.683" gradientUnits="userSpaceOnUse">
<stop stop-color="white"/>
<stop offset="1" stop-color="#DCE4EB"/>
</linearGradient>
<linearGradient id="paint21_linear_391_760" x1="11.8057" y1="272.683" x2="323.159" y2="272.683" gradientUnits="userSpaceOnUse">
<stop stop-color="white"/>
<stop offset="1" stop-color="#DCE4EB"/>
</linearGradient>
<linearGradient id="paint22_linear_391_760" x1="11.8057" y1="272.683" x2="323.159" y2="272.683" gradientUnits="userSpaceOnUse">
<stop stop-color="white"/>
<stop offset="1" stop-color="#DCE4EB"/>
</linearGradient>
<linearGradient id="paint23_linear_391_760" x1="11.8057" y1="272.683" x2="323.159" y2="272.683" gradientUnits="userSpaceOnUse">
<stop stop-color="white"/>
<stop offset="1" stop-color="#DCE4EB"/>
</linearGradient>
<linearGradient id="paint24_linear_391_760" x1="11.8057" y1="272.683" x2="323.159" y2="272.683" gradientUnits="userSpaceOnUse">
<stop stop-color="white"/>
<stop offset="1" stop-color="#DCE4EB"/>
</linearGradient>
</defs>
</svg>
