<svg width="340" height="82" viewBox="0 0 340 82" fill="none" xmlns="http://www.w3.org/2000/svg">
<path d="M118.38 27.1438L118.605 36.37H117.767C117.372 34.0567 116.398 32.1992 114.846 30.7975C113.307 29.3823 111.639 28.6747 109.841 28.6747C108.452 28.6747 107.349 29.0489 106.532 29.7974C105.728 30.5322 105.327 31.3827 105.327 32.3489C105.327 32.9612 105.47 33.5055 105.756 33.9818C106.15 34.6214 106.784 35.2542 107.655 35.8801C108.295 36.3292 109.773 37.1253 112.088 38.2684C115.329 39.8605 117.515 41.3642 118.646 42.7794C119.762 44.1947 120.321 45.814 120.321 47.6375C120.321 49.9509 119.415 51.9444 117.604 53.6182C115.806 55.2784 113.518 56.1085 110.74 56.1085C109.868 56.1085 109.044 56.02 108.268 55.8431C107.492 55.6662 106.518 55.3328 105.347 54.8429C104.693 54.5708 104.155 54.4347 103.733 54.4347C103.379 54.4347 103.005 54.5708 102.61 54.8429C102.215 55.1151 101.895 55.5301 101.65 56.0881H100.894V45.6371H101.65C102.249 48.5764 103.4 50.8218 105.102 52.3731C106.818 53.9108 108.663 54.6796 110.638 54.6796C112.163 54.6796 113.375 54.2646 114.274 53.4345C115.186 52.6044 115.643 51.6383 115.643 50.536C115.643 49.8828 115.466 49.25 115.111 48.6377C114.771 48.0253 114.247 47.447 113.539 46.9027C112.83 46.3447 111.577 45.6235 109.78 44.739C107.26 43.5006 105.449 42.446 104.346 41.5751C103.243 40.7042 102.392 39.7312 101.793 38.6562C101.207 37.5811 100.914 36.3972 100.914 35.1045C100.914 32.9 101.724 31.0221 103.345 29.4708C104.966 27.9194 107.008 27.1438 109.473 27.1438C110.372 27.1438 111.244 27.2526 112.088 27.4704C112.728 27.6337 113.505 27.9399 114.417 28.3889C115.343 28.8244 115.99 29.0421 116.358 29.0421C116.712 29.0421 116.991 28.9332 117.195 28.7155C117.399 28.4978 117.59 27.9739 117.767 27.1438H118.38Z" fill="url(#paint0_linear_21_32)"/>
<path d="M131.297 29.3891V36.37H135.832V38.3908H131.297V50.1686C131.297 51.2708 131.345 51.9853 131.44 52.3118C131.549 52.6248 131.733 52.8834 131.992 53.0875C132.25 53.278 132.489 53.3733 132.707 53.3733C133.592 53.3733 134.429 52.6997 135.219 51.3525L135.832 51.8015C134.729 54.4143 132.938 55.7207 130.46 55.7207C129.248 55.7207 128.219 55.3873 127.375 54.7205C126.544 54.0401 126.013 53.2848 125.782 52.4547C125.645 51.9921 125.577 50.7401 125.577 48.6989V38.3908H123.085V37.6764C124.801 36.4653 126.258 35.1929 127.457 33.8593C128.669 32.5258 129.724 31.0357 130.623 29.3891H131.297Z" fill="url(#paint1_linear_21_32)"/>
<path d="M148.484 52.6384C146.155 54.6933 144.065 55.7207 142.213 55.7207C141.123 55.7207 140.217 55.3669 139.496 54.6592C138.774 53.938 138.413 53.0399 138.413 51.9648C138.413 50.5088 139.039 49.2024 140.292 48.0457C141.545 46.8754 144.276 45.3241 148.484 43.3918V41.473C148.484 40.0306 148.402 39.1257 148.239 38.7582C148.089 38.3772 147.796 38.0506 147.36 37.7785C146.925 37.4927 146.434 37.3498 145.89 37.3498C145.004 37.3498 144.276 37.5471 143.704 37.9418C143.35 38.1867 143.173 38.4725 143.173 38.7991C143.173 39.0848 143.363 39.4386 143.745 39.8605C144.262 40.4456 144.521 41.0104 144.521 41.5547C144.521 42.2215 144.269 42.793 143.765 43.2693C143.275 43.732 142.628 43.9633 141.824 43.9633C140.966 43.9633 140.245 43.7048 139.659 43.1877C139.087 42.6706 138.801 42.065 138.801 41.371C138.801 40.3912 139.189 39.4591 139.965 38.5745C140.742 37.6764 141.824 36.9892 143.213 36.5129C144.603 36.0366 146.046 35.7985 147.544 35.7985C149.355 35.7985 150.785 36.1863 151.834 36.962C152.896 37.724 153.584 38.5541 153.897 39.4523C154.088 40.0238 154.183 41.337 154.183 43.3918V50.8014C154.183 51.6723 154.217 52.2234 154.285 52.4547C154.353 52.6725 154.456 52.8358 154.592 52.9446C154.728 53.0535 154.885 53.1079 155.062 53.1079C155.416 53.1079 155.777 52.8562 156.144 52.3527L156.757 52.8426C156.076 53.8496 155.368 54.5844 154.633 55.0471C153.911 55.4961 153.087 55.7207 152.161 55.7207C151.071 55.7207 150.22 55.4689 149.607 54.9654C148.995 54.4483 148.62 53.6727 148.484 52.6384ZM148.484 51.1484V44.7594C146.836 45.7256 145.61 46.7598 144.807 47.862C144.276 48.5969 144.01 49.3385 144.01 50.0869C144.01 50.7129 144.235 51.264 144.684 51.7403C145.025 52.1077 145.501 52.2914 146.114 52.2914C146.795 52.2914 147.585 51.9104 148.484 51.1484Z" fill="url(#paint2_linear_21_32)"/>
<path d="M167.08 36.37V40.6974C168.347 38.7242 169.456 37.4179 170.41 36.7783C171.363 36.1251 172.282 35.7985 173.168 35.7985C173.93 35.7985 174.536 36.0366 174.986 36.5129C175.449 36.9756 175.68 37.6356 175.68 38.4929C175.68 39.4046 175.455 40.1122 175.006 40.6157C174.57 41.1192 174.039 41.371 173.413 41.371C172.691 41.371 172.064 41.1396 171.533 40.677C171.002 40.2143 170.689 39.9558 170.594 39.9013C170.457 39.8197 170.301 39.7788 170.124 39.7788C169.729 39.7788 169.354 39.9285 169 40.2279C168.442 40.6906 168.02 41.3506 167.734 42.2079C167.298 43.5279 167.08 44.9839 167.08 46.5761V50.9647L167.1 52.1077C167.1 52.8834 167.148 53.3801 167.243 53.5978C167.407 53.9652 167.645 54.2374 167.958 54.4143C168.285 54.5776 168.83 54.6796 169.593 54.7205V55.4553H159.277V54.7205C160.107 54.6524 160.666 54.4279 160.952 54.0469C161.251 53.6522 161.401 52.6248 161.401 50.9647V40.4116C161.401 39.323 161.347 38.629 161.238 38.3296C161.101 37.9486 160.904 37.6696 160.645 37.4927C160.387 37.3158 159.93 37.1933 159.277 37.1253V36.37H167.08Z" fill="url(#paint3_linear_21_32)"/>
<path d="M185.615 29.3891V36.37H190.15V38.3908H185.615V50.1686C185.615 51.2708 185.663 51.9853 185.758 52.3118C185.867 52.6248 186.051 52.8834 186.309 53.0875C186.568 53.278 186.807 53.3733 187.024 53.3733C187.91 53.3733 188.747 52.6997 189.537 51.3525L190.15 51.8015C189.047 54.4143 187.256 55.7207 184.777 55.7207C183.565 55.7207 182.537 55.3873 181.693 54.7205C180.862 54.0401 180.331 53.2848 180.099 52.4547C179.963 51.9921 179.895 50.7401 179.895 48.6989V38.3908H177.403V37.6764C179.119 36.4653 180.576 35.1929 181.774 33.8593C182.987 32.5258 184.042 31.0357 184.941 29.3891H185.615Z" fill="url(#paint4_linear_21_32)"/>
<path d="M202.802 52.6384C200.473 54.6933 198.382 55.7207 196.53 55.7207C195.441 55.7207 194.535 55.3669 193.813 54.6592C193.092 53.938 192.731 53.0399 192.731 51.9648C192.731 50.5088 193.357 49.2024 194.61 48.0457C195.863 46.8754 198.593 45.3241 202.802 43.3918V41.473C202.802 40.0306 202.72 39.1257 202.556 38.7582C202.407 38.3772 202.114 38.0506 201.678 37.7785C201.242 37.4927 200.752 37.3498 200.207 37.3498C199.322 37.3498 198.593 37.5471 198.021 37.9418C197.667 38.1867 197.49 38.4725 197.49 38.7991C197.49 39.0848 197.681 39.4386 198.062 39.8605C198.58 40.4456 198.839 41.0104 198.839 41.5547C198.839 42.2215 198.587 42.793 198.083 43.2693C197.592 43.732 196.946 43.9633 196.142 43.9633C195.284 43.9633 194.562 43.7048 193.977 43.1877C193.405 42.6706 193.119 42.065 193.119 41.371C193.119 40.3912 193.507 39.4591 194.283 38.5745C195.059 37.6764 196.142 36.9892 197.531 36.5129C198.92 36.0366 200.364 35.7985 201.862 35.7985C203.673 35.7985 205.103 36.1863 206.152 36.962C207.214 37.724 207.902 38.5541 208.215 39.4523C208.406 40.0238 208.501 41.337 208.501 43.3918V50.8014C208.501 51.6723 208.535 52.2234 208.603 52.4547C208.671 52.6725 208.773 52.8358 208.909 52.9446C209.046 53.0535 209.202 53.1079 209.379 53.1079C209.733 53.1079 210.094 52.8562 210.462 52.3527L211.075 52.8426C210.394 53.8496 209.686 54.5844 208.95 55.0471C208.229 55.4961 207.405 55.7207 206.479 55.7207C205.389 55.7207 204.538 55.4689 203.925 54.9654C203.312 54.4483 202.938 53.6727 202.802 52.6384ZM202.802 51.1484V44.7594C201.154 45.7256 199.928 46.7598 199.125 47.862C198.593 48.5969 198.328 49.3385 198.328 50.0869C198.328 50.7129 198.553 51.264 199.002 51.7403C199.342 52.1077 199.819 52.2914 200.432 52.2914C201.113 52.2914 201.903 51.9104 202.802 51.1484Z" fill="url(#paint5_linear_21_32)"/>
<path d="M220.948 27.7766V51.4954C220.948 52.8426 221.105 53.7067 221.418 54.0877C221.731 54.4551 222.344 54.666 223.257 54.7205V55.4553H212.941V54.7205C213.785 54.6933 214.411 54.4483 214.82 53.9856C215.092 53.6727 215.229 52.8426 215.229 51.4954V31.7365C215.229 30.4029 215.072 29.5524 214.759 29.185C214.445 28.804 213.839 28.5862 212.941 28.5318V27.7766H220.948Z" fill="url(#paint6_linear_21_32)"/>
<path d="M241.587 45.2289H231.108C231.23 47.76 231.904 49.7603 233.13 51.23C234.07 52.3595 235.2 52.9242 236.521 52.9242C237.338 52.9242 238.08 52.6997 238.748 52.2506C239.415 51.7879 240.13 50.9647 240.893 49.7808L241.587 50.2298C240.552 52.3391 239.408 53.8359 238.155 54.7205C236.902 55.5914 235.452 56.0268 233.804 56.0268C230.972 56.0268 228.827 54.9382 227.37 52.7609C226.198 51.0055 225.613 48.8282 225.613 46.2291C225.613 43.0448 226.471 40.5137 228.187 38.6358C229.916 36.7443 231.939 35.7985 234.254 35.7985C236.188 35.7985 237.863 36.5946 239.279 38.1867C240.709 39.7652 241.478 42.1126 241.587 45.2289ZM236.562 43.8613C236.562 41.6704 236.439 40.1667 236.194 39.3502C235.963 38.5337 235.595 37.9145 235.091 37.4927C234.805 37.2478 234.424 37.1253 233.947 37.1253C233.239 37.1253 232.66 37.4723 232.211 38.1663C231.407 39.3774 231.006 41.0376 231.006 43.1468V43.8613H236.562Z" fill="url(#paint7_linear_21_32)"/>
<path d="M280.046 45.7392L279.004 55.4553H254.409V54.7001H255.329C256.132 54.7001 256.779 54.5572 257.269 54.2714C257.623 54.0809 257.896 53.7543 258.086 53.2916C258.236 52.965 258.311 52.1077 258.311 50.7197V32.5122C258.311 31.0969 258.236 30.2124 258.086 29.8586C257.936 29.5048 257.63 29.1986 257.167 28.94C256.718 28.6679 256.105 28.5318 255.329 28.5318H254.409V27.7766H269.179V28.5318H267.973C267.17 28.5318 266.523 28.6747 266.033 28.9605C265.679 29.151 265.399 29.4776 265.195 29.9402C265.045 30.2668 264.97 31.1241 264.97 32.5122V50.1482C264.97 51.5634 265.052 52.4683 265.216 52.863C265.379 53.244 265.699 53.5298 266.176 53.7203C266.516 53.8428 267.34 53.904 268.647 53.904H270.956C272.427 53.904 273.652 53.6454 274.633 53.1283C275.613 52.6112 276.458 51.7947 277.166 50.6789C277.888 49.563 278.569 47.9165 279.209 45.7392H280.046Z" fill="url(#paint8_linear_21_32)"/>
<path d="M293.069 52.6384C290.741 54.6933 288.65 55.7207 286.798 55.7207C285.708 55.7207 284.803 55.3669 284.081 54.6592C283.359 53.938 282.998 53.0399 282.998 51.9648C282.998 50.5088 283.625 49.2024 284.878 48.0457C286.131 46.8754 288.861 45.3241 293.069 43.3918V41.473C293.069 40.0306 292.988 39.1257 292.824 38.7582C292.674 38.3772 292.382 38.0506 291.946 37.7785C291.51 37.4927 291.02 37.3498 290.475 37.3498C289.59 37.3498 288.861 37.5471 288.289 37.9418C287.935 38.1867 287.758 38.4725 287.758 38.7991C287.758 39.0848 287.949 39.4386 288.33 39.8605C288.848 40.4456 289.106 41.0104 289.106 41.5547C289.106 42.2215 288.854 42.793 288.35 43.2693C287.86 43.732 287.213 43.9633 286.41 43.9633C285.552 43.9633 284.83 43.7048 284.244 43.1877C283.673 42.6706 283.387 42.065 283.387 41.371C283.387 40.3912 283.775 39.4591 284.551 38.5745C285.327 37.6764 286.41 36.9892 287.799 36.5129C289.188 36.0366 290.632 35.7985 292.13 35.7985C293.941 35.7985 295.371 36.1863 296.419 36.962C297.482 37.724 298.169 38.5541 298.483 39.4523C298.673 40.0238 298.769 41.337 298.769 43.3918V50.8014C298.769 51.6723 298.803 52.2234 298.871 52.4547C298.939 52.6725 299.041 52.8358 299.177 52.9446C299.313 53.0535 299.47 53.1079 299.647 53.1079C300.001 53.1079 300.362 52.8562 300.73 52.3527L301.343 52.8426C300.662 53.8496 299.953 54.5844 299.218 55.0471C298.496 55.4961 297.672 55.7207 296.746 55.7207C295.657 55.7207 294.806 55.4689 294.193 54.9654C293.58 54.4483 293.205 53.6727 293.069 52.6384ZM293.069 51.1484V44.7594C291.421 45.7256 290.196 46.7598 289.392 47.862C288.861 48.5969 288.596 49.3385 288.596 50.0869C288.596 50.7129 288.82 51.264 289.27 51.7403C289.61 52.1077 290.087 52.2914 290.7 52.2914C291.381 52.2914 292.17 51.9104 293.069 51.1484Z" fill="url(#paint9_linear_21_32)"/>
<path d="M310.423 27.7766V38.2888C312.03 36.6286 313.787 35.7985 315.694 35.7985C317.001 35.7985 318.233 36.1863 319.391 36.962C320.549 37.724 321.454 38.8127 322.108 40.2279C322.762 41.6431 323.088 43.2761 323.088 45.1268C323.088 47.2088 322.673 49.1004 321.842 50.8014C321.012 52.5024 319.902 53.8019 318.513 54.7001C317.123 55.5846 315.537 56.0268 313.753 56.0268C312.718 56.0268 311.799 55.8635 310.995 55.537C310.192 55.2104 309.402 54.6796 308.625 53.9448L305.459 56.0064H304.765V31.7365C304.765 30.6342 304.717 29.9538 304.622 29.6953C304.485 29.3143 304.268 29.0353 303.968 28.8584C303.682 28.6679 303.192 28.559 302.497 28.5318V27.7766H310.423ZM310.423 40.1054V48.5969C310.423 50.3251 310.464 51.4273 310.546 51.9036C310.682 52.7065 311.009 53.3597 311.526 53.8632C312.044 54.3531 312.704 54.598 313.508 54.598C314.202 54.598 314.795 54.4007 315.285 54.006C315.789 53.6114 316.204 52.829 316.531 51.6587C316.872 50.4884 317.042 48.3791 317.042 45.3309C317.042 42.4052 316.674 40.398 315.939 39.3094C315.408 38.5201 314.693 38.1255 313.794 38.1255C312.623 38.1255 311.499 38.7855 310.423 40.1054Z" fill="url(#paint10_linear_21_32)"/>
<path d="M337.97 35.8393L338.277 42.3508H337.582C336.752 40.4184 335.887 39.0984 334.988 38.3908C334.103 37.6832 333.218 37.3294 332.332 37.3294C331.774 37.3294 331.297 37.5199 330.902 37.9009C330.507 38.2684 330.31 38.697 330.31 39.1869C330.31 39.5543 330.446 39.9081 330.719 40.2483C331.154 40.8063 332.373 41.7656 334.375 43.1264C336.377 44.4736 337.691 45.6235 338.318 46.5761C338.958 47.515 339.278 48.5696 339.278 49.7399C339.278 50.8014 339.012 51.8424 338.481 52.863C337.95 53.8836 337.201 54.666 336.234 55.2104C335.267 55.7547 334.198 56.0268 333.027 56.0268C332.114 56.0268 330.896 55.7411 329.37 55.1695C328.962 55.0198 328.683 54.945 328.533 54.945C328.083 54.945 327.709 55.2852 327.409 55.9656H326.735L326.408 49.1072H327.103C327.716 50.9034 328.553 52.2506 329.615 53.1487C330.691 54.0469 331.706 54.4959 332.659 54.4959C333.313 54.4959 333.844 54.2986 334.253 53.904C334.675 53.4957 334.886 53.0059 334.886 52.4343C334.886 51.7811 334.682 51.2164 334.273 50.7401C333.864 50.2638 332.952 49.5426 331.536 48.5764C329.452 47.134 328.104 46.0317 327.491 45.2697C326.592 44.1538 326.143 42.9223 326.143 41.5751C326.143 40.1054 326.647 38.7787 327.654 37.5948C328.676 36.3972 330.147 35.7985 332.067 35.7985C333.102 35.7985 334.103 36.0502 335.07 36.5537C335.437 36.7579 335.737 36.8599 335.969 36.8599C336.214 36.8599 336.411 36.8123 336.561 36.717C336.711 36.6082 336.949 36.3156 337.276 35.8393H337.97Z" fill="url(#paint11_linear_21_32)"/>
<g clip-path="url(#clip0_21_32)">
<path fill-rule="evenodd" clip-rule="evenodd" d="M75.8314 23.1124C72.9586 17.3948 68.8064 12.6131 63.8431 9.0183C57.2105 4.21045 49.1389 1.52287 40.7717 1.52287V8.05098C45.8763 8.04575 50.9469 9.24575 55.625 11.6274C57.166 12.4118 58.626 13.3059 59.9996 14.2993C62.8384 16.349 65.303 18.8248 67.3255 21.6405L75.8288 23.1098H75.8314V23.1124ZM78.1024 28.6314H78.0972H78.1024ZM78.0972 28.6314C80.7633 36.8274 80.5802 45.2614 78.0972 52.8693C76.1663 58.7882 72.8435 64.2026 68.3851 68.6183L67.1554 60.0693C68.1837 58.6627 69.1099 57.1647 69.9157 55.583C70.7007 54.0431 71.3548 52.4614 71.8833 50.851C74.0235 44.3229 74.047 37.3085 71.8807 30.6497L78.0972 28.6314V28.6314ZM50.8841 71.8261C47.5665 72.9033 44.1599 73.4366 40.7717 73.4392C37.3128 73.4418 33.867 72.8902 30.552 71.7895L22.7996 75.5987C28.2915 78.4274 34.4478 79.9673 40.7717 79.9673C44.7905 79.9673 48.8773 79.3477 52.9065 78.0405C56.9306 76.7333 60.5987 74.8379 63.8457 72.4797L60.0048 67.1987C57.2628 69.183 54.1964 70.749 50.8841 71.8261ZM8.05886 40.6261C8.04839 44.051 8.58214 47.4941 9.67318 50.8457C11.8396 57.4993 15.9813 63.1595 21.549 67.1856L17.7081 72.4693C11.2273 67.7712 6.11749 61.0575 3.454 52.864C1.44984 46.7072 1.05738 40.4118 2.03853 34.4353L8.05886 40.6261ZM21.5412 14.2993C17.4125 17.2928 14.0216 21.2379 11.6381 25.9098C10.8506 27.4523 10.1965 29.0366 9.66794 30.6497L3.45138 28.6314C5.98929 20.8484 10.9317 13.9307 17.7003 9.0183C20.9499 6.65751 24.6207 4.75686 28.6499 3.44967C30.6959 2.78562 32.755 2.30196 34.8141 1.983L30.7744 9.63529L30.6724 9.66666C27.3548 10.7438 24.2858 12.3098 21.5412 14.2993V14.2993Z" fill="url(#paint12_linear_21_32)"/>
<path d="M77.935 28.9583C80.4206 36.7727 80.3918 45.0053 77.8539 52.7883C75.9884 58.506 72.7859 63.774 68.5735 68.0615L67.4328 60.1374C68.4532 58.7308 69.3689 57.2406 70.1512 55.7034C70.9309 54.174 71.5981 52.5687 72.1345 50.9348C74.2799 44.3857 74.3061 37.4341 72.2103 30.8197L77.8827 28.8093M78.1025 28.6315L71.8807 30.6524C74.047 37.3112 74.0235 44.3256 71.8833 50.8537C71.3548 52.4642 70.7007 54.0459 69.9158 55.5857C69.1099 57.1674 68.1837 58.6655 67.1555 60.072L68.3852 68.621C72.8435 64.2053 76.1663 58.791 78.0972 52.872C80.5802 45.2615 80.7633 36.8276 78.0972 28.6315H78.1025Z" fill="#2A3039"/>
<path d="M59.9473 67.5648L63.6076 72.3335C60.3606 74.655 56.648 76.5531 52.8254 77.7949C48.9139 79.0655 44.8585 79.7086 40.7717 79.7086C34.7801 79.7086 28.7807 78.2916 23.3857 75.604L30.5703 72.0746C33.8696 73.1544 37.2919 73.7034 40.7429 73.7034H40.7717C44.2201 73.7008 47.6502 73.1518 50.9652 72.0772C54.1938 71.0289 57.2131 69.5125 59.9473 67.5674M60.0048 67.204C57.2628 69.1884 54.1964 70.7544 50.8841 71.8315C47.5665 72.9086 44.1599 73.442 40.7717 73.4446H40.7429C37.2919 73.4446 33.8592 72.8903 30.5494 71.7949L22.797 75.604C28.2888 78.4328 34.4426 79.9727 40.7691 79.9727C44.7879 79.9727 48.8747 79.3531 52.9039 78.0459C56.9279 76.7387 60.5961 74.8433 63.8431 72.4851L60.0022 67.204H60.0048Z" fill="#2A3039"/>
<path d="M2.21644 34.9921L7.79984 40.7306C7.79984 44.179 8.34928 47.6064 9.42724 50.9241C11.5753 57.528 15.6386 63.1646 21.1853 67.243L17.7683 72.1868C11.1776 67.3424 6.24046 60.5842 3.70256 52.7829C1.8109 46.9685 1.31117 40.9868 2.21644 34.9921ZM2.03853 34.4352C1.05738 40.4117 1.44984 46.7071 3.454 52.864C6.11749 61.0574 11.2273 67.7711 17.7081 72.4692L21.549 67.1855C15.9813 63.1594 11.8396 57.4992 9.67318 50.843C8.58214 47.4914 8.04839 44.0483 8.05886 40.6234L2.03853 34.4352V34.4352Z" fill="#2A3039"/>
<path d="M40.8763 1.78431C44.9003 1.81045 49.0421 2.45882 52.883 3.71634C56.7552 4.98431 60.392 6.83791 63.6887 9.22745C68.563 12.7595 72.5897 17.4314 75.3604 22.7647L67.4772 21.4026C65.4391 18.5869 62.9744 16.1268 60.1539 14.0902C58.7594 13.081 57.2759 12.1765 55.7453 11.3974C51.1117 9.03921 46.1641 7.82614 41.0333 7.79215L40.8763 1.78431V1.78431ZM40.7848 1.52287H40.7717V8.05098H40.8135C45.905 8.05098 50.9599 9.25098 55.6276 11.6274C57.1686 12.4118 58.6286 13.3059 60.0022 14.2993C62.841 16.349 65.3056 18.8248 67.3281 21.6405L75.8314 23.1098C72.9586 17.3922 68.8064 12.6105 63.8431 9.01568C57.2131 4.21568 49.1468 1.52287 40.7848 1.52287Z" fill="#2A3039"/>
<path d="M34.338 2.32288L30.5939 9.41569H30.5913C27.2763 10.4928 24.1785 12.0641 21.3868 14.0876C17.1613 17.149 13.8019 21.0863 11.4053 25.7895C10.6622 27.2458 10.0238 28.7673 9.50314 30.3203L3.7366 28.6105C4.99771 24.8301 6.86581 21.1307 9.20226 17.902C11.6198 14.5608 14.5292 11.6431 17.8547 9.23007C21.1618 6.83007 24.8195 4.96863 28.731 3.69804C30.5599 3.10458 32.4437 2.64183 34.338 2.32288M34.8142 1.98039C32.7551 2.29935 30.696 2.78301 28.6499 3.44706C24.6207 4.75425 20.9499 6.6549 17.7003 9.01569C10.9317 13.9307 5.98932 20.8484 3.45142 28.6314L9.66798 30.6497C10.1965 29.0366 10.8506 27.4523 11.6381 25.9098C14.0217 21.2379 17.4125 17.2928 21.5412 14.2993C24.2858 12.3098 27.3548 10.7438 30.6724 9.66667C30.7064 9.65621 30.7404 9.64575 30.7745 9.63529L34.8142 1.98301V1.98039Z" fill="#2A3039"/>
<path d="M78.1391 52.9529L71.9225 50.9346C71.394 52.5451 70.7399 54.1268 69.955 55.6667C69.1491 57.2484 68.2229 58.7464 67.1947 60.1529L68.4244 68.7019C72.8827 64.2863 76.2055 58.8719 78.1364 52.9529H78.1391V52.9529Z" fill="url(#paint13_linear_21_32)"/>
<path d="M40.7717 79.97V73.4419C37.3128 73.4445 33.867 72.8929 30.552 71.7922L22.7997 75.6014C28.2915 78.4301 34.4479 79.97 40.7717 79.97Z" fill="url(#paint14_linear_21_32)"/>
<path d="M3.454 52.864L9.6758 50.843C8.58476 47.4914 8.05101 44.0483 8.06148 40.6234L2.03853 34.4352C1.05738 40.4117 1.44984 46.7071 3.454 52.864Z" fill="url(#paint15_linear_21_32)"/>
<path d="M63.8431 9.01828L60.0022 14.3019C62.841 16.3516 65.3056 18.8274 67.3281 21.6431L75.8314 23.1124C72.9586 17.3948 68.8064 12.6131 63.8431 9.01828V9.01828Z" fill="url(#paint16_linear_21_32)"/>
<path d="M28.6499 3.44961C24.6207 4.7568 20.9499 6.65745 17.7003 9.01823L21.5412 14.2993C24.2858 12.3097 27.3548 10.7437 30.6724 9.6666C30.7064 9.65614 30.7404 9.64569 30.7744 9.63523L34.8141 1.98294C32.755 2.30189 30.6959 2.78555 28.6499 3.44961V3.44961Z" fill="url(#paint17_linear_21_32)"/>
<path d="M60.167 47.0445L60.2848 46.9243L78.0684 28.6393L52.9248 24.2916L52.7574 24.2628L52.6789 24.1138L40.7717 1.56219L28.8644 24.1138L28.7859 24.2628L28.6185 24.2916L3.47491 28.6393L21.2586 46.9243L21.3763 47.0445L21.3528 47.2119L17.7212 72.4511L40.6199 61.2014L40.7717 61.1256L40.9234 61.1988L63.8221 72.4485L60.1906 47.2119L60.167 47.0445V47.0445ZM43.5477 54.736L43.4064 54.6655L40.9313 53.4524L38.4588 54.6681L38.3149 54.7387L26.5044 60.5426L28.3804 47.5151L28.4013 47.3583L28.7886 44.6393L26.876 42.6655L26.7582 42.5452L17.5851 33.1151L30.552 30.872L30.7064 30.8459L33.4274 30.3753L34.7147 27.936L34.788 27.7975L40.9286 16.1661L47.0693 27.7975L47.1426 27.936L48.4299 30.3753L51.1509 30.8459L51.3053 30.872L64.2748 33.1151L55.1017 42.5452L54.9918 42.6576L53.0687 44.6367L53.4612 47.3661L53.4847 47.5204L55.3581 60.5374L43.5424 54.7308L43.5477 54.736V54.736Z" fill="url(#paint18_linear_21_32)"/>
<path d="M53.7071 43.9856L43.736 40.749L62.9116 34.5215L64.28 33.115L62.3465 32.7803L43.1683 39.0078L49.3325 30.532L48.4351 30.3777L47.9066 29.3764L41.6874 37.9307V17.596L40.9313 16.166L39.8559 18.2052V37.9307L33.8225 29.6326L33.4274 30.3777L32.2474 30.5816L38.375 39.0078L19.3094 32.8169L17.5851 33.115L19.1 34.6758L37.8073 40.749L28.0769 43.9071L28.7859 44.6392L28.642 45.6483L38.3724 42.4901L26.8132 58.3908L26.5018 60.5424L28.0717 59.7712L39.8559 43.5646V53.9803L40.9286 53.4548L41.6874 53.8261V43.5646L53.2911 59.5254L55.3633 60.5424L55.1305 58.9398L43.1683 42.4901L53.2336 45.7555L53.074 44.6392L53.7071 43.9856V43.9856Z" fill="url(#paint19_radial_21_32)"/>
<path d="M28.7859 24.2629L28.6185 24.2916L11.8264 27.1962L17.5851 33.1151L30.552 30.8746L30.7064 30.8459L33.2521 30.4093L28.7859 24.2629V24.2629Z" fill="url(#paint20_linear_21_32)"/>
<path d="M26.5332 60.3307L28.3778 47.515L28.3987 47.3581L28.7859 44.6392L21.3763 47.0444L21.3527 47.2117L18.8959 64.281L26.3108 60.6366L26.5332 60.3307V60.3307Z" fill="url(#paint21_linear_21_32)"/>
<path d="M55.052 60.3908L43.5451 54.7358L43.4038 54.6653L40.9287 53.4548L40.7717 53.5306V61.1254L40.9234 61.1986L56.5616 68.8823L55.4104 60.8823L55.052 60.3908V60.3908Z" fill="url(#paint22_linear_21_32)"/>
<path d="M64.28 33.2066L55.1069 42.6367L54.997 42.7491L53.074 44.7282L53.0897 44.8354L60.167 47.1334L60.2848 47.0132L72.3542 34.6027L64.28 33.2066V33.2066Z" fill="url(#paint23_linear_21_32)"/>
<path d="M52.6789 24.2026L44.7067 9.10457L40.9339 16.2549L47.0746 27.8863L47.1478 28.0248L48.3828 30.3673L52.7574 24.3516L52.6789 24.2026V24.2026Z" fill="url(#paint24_linear_21_32)"/>
<path d="M17.5092 33.2275L11.6328 27.2249L11.9442 27.1752L17.6976 33.0445L17.5092 33.2275V33.2275Z" fill="url(#paint25_linear_21_32)"/>
<path d="M18.8751 64.4274L18.9169 64.1267L26.3815 60.4587L26.3684 60.7542L18.8751 64.4274Z" fill="url(#paint26_linear_21_32)"/>
<path d="M56.4334 68.817L55.2404 60.6288L55.5282 60.7673L56.7082 68.953L56.4334 68.817V68.817Z" fill="url(#paint27_linear_21_32)"/>
<path d="M72.2391 34.6315L64.2565 33.2458L64.3009 32.9896L72.4641 34.4066L72.2391 34.6315Z" fill="url(#paint28_linear_21_32)"/>
<path d="M41.049 16.2262L40.8161 16.1059L44.6308 8.87454L44.7826 9.14905L41.049 16.2262V16.2262Z" fill="url(#paint29_linear_21_32)"/>
<path d="M55.5281 60.7674L40.9312 53.5988L26.3396 60.7674L28.6499 44.6838L26.6666 42.6367L17.3209 33.0289L33.3463 30.2602L40.9365 15.8864L48.524 30.2602L64.5495 33.0315L53.2126 44.6864L55.5281 60.7727V60.7674V60.7674ZM17.852 33.2014L28.9272 44.5949L28.5086 47.5334L26.6693 60.3151L40.9312 53.3086L43.6052 54.6184L55.1984 60.3151L52.9353 44.5923L64.0157 33.2014L48.3513 30.4929L46.9594 27.8576L40.9339 16.4459L33.5164 30.4955L17.8546 33.2014H17.852Z" fill="#3B424C"/>
</g>
<defs>
<linearGradient id="paint0_linear_21_32" x1="108.943" y1="41.4647" x2="340.886" y2="41.4647" gradientUnits="userSpaceOnUse">
<stop stop-color="#272B33"/>
<stop offset="1" stop-color="#0B0C10"/>
</linearGradient>
<linearGradient id="paint1_linear_21_32" x1="108.943" y1="41.4647" x2="340.886" y2="41.4647" gradientUnits="userSpaceOnUse">
<stop stop-color="#272B33"/>
<stop offset="1" stop-color="#0B0C10"/>
</linearGradient>
<linearGradient id="paint2_linear_21_32" x1="108.943" y1="41.4647" x2="340.886" y2="41.4647" gradientUnits="userSpaceOnUse">
<stop stop-color="#272B33"/>
<stop offset="1" stop-color="#0B0C10"/>
</linearGradient>
<linearGradient id="paint3_linear_21_32" x1="108.943" y1="41.4647" x2="340.886" y2="41.4647" gradientUnits="userSpaceOnUse">
<stop stop-color="#272B33"/>
<stop offset="1" stop-color="#0B0C10"/>
</linearGradient>
<linearGradient id="paint4_linear_21_32" x1="108.943" y1="41.4647" x2="340.886" y2="41.4647" gradientUnits="userSpaceOnUse">
<stop stop-color="#272B33"/>
<stop offset="1" stop-color="#0B0C10"/>
</linearGradient>
<linearGradient id="paint5_linear_21_32" x1="108.943" y1="41.4647" x2="340.886" y2="41.4647" gradientUnits="userSpaceOnUse">
<stop stop-color="#272B33"/>
<stop offset="1" stop-color="#0B0C10"/>
</linearGradient>
<linearGradient id="paint6_linear_21_32" x1="108.943" y1="41.4647" x2="340.886" y2="41.4647" gradientUnits="userSpaceOnUse">
<stop stop-color="#272B33"/>
<stop offset="1" stop-color="#0B0C10"/>
</linearGradient>
<linearGradient id="paint7_linear_21_32" x1="108.943" y1="41.4647" x2="340.886" y2="41.4647" gradientUnits="userSpaceOnUse">
<stop stop-color="#272B33"/>
<stop offset="1" stop-color="#0B0C10"/>
</linearGradient>
<linearGradient id="paint8_linear_21_32" x1="108.943" y1="41.4647" x2="340.886" y2="41.4647" gradientUnits="userSpaceOnUse">
<stop stop-color="#272B33"/>
<stop offset="1" stop-color="#0B0C10"/>
</linearGradient>
<linearGradient id="paint9_linear_21_32" x1="108.943" y1="41.4647" x2="340.886" y2="41.4647" gradientUnits="userSpaceOnUse">
<stop stop-color="#272B33"/>
<stop offset="1" stop-color="#0B0C10"/>
</linearGradient>
<linearGradient id="paint10_linear_21_32" x1="108.943" y1="41.4647" x2="340.886" y2="41.4647" gradientUnits="userSpaceOnUse">
<stop stop-color="#272B33"/>
<stop offset="1" stop-color="#0B0C10"/>
</linearGradient>
<linearGradient id="paint11_linear_21_32" x1="108.943" y1="41.4647" x2="340.886" y2="41.4647" gradientUnits="userSpaceOnUse">
<stop stop-color="#272B33"/>
<stop offset="1" stop-color="#0B0C10"/>
</linearGradient>
<linearGradient id="paint12_linear_21_32" x1="12.839" y1="12.8274" x2="69.0481" y2="69.08" gradientUnits="userSpaceOnUse">
<stop stop-color="#7C838E"/>
<stop offset="0.21" stop-color="#BCC2CC"/>
<stop offset="0.37" stop-color="#ACB5C1"/>
<stop offset="0.8" stop-color="#69707C"/>
<stop offset="1" stop-color="#323A45"/>
</linearGradient>
<linearGradient id="paint13_linear_21_32" x1="67.6552" y1="64.0431" x2="74.9734" y2="53.4496" gradientUnits="userSpaceOnUse">
<stop stop-color="#0A0D10"/>
<stop offset="1" stop-color="#0A0D10" stop-opacity="0"/>
</linearGradient>
<linearGradient id="paint14_linear_21_32" x1="26.9466" y1="74.5608" x2="39.5048" y2="76.7864" gradientUnits="userSpaceOnUse">
<stop stop-color="#0A0D10"/>
<stop offset="1" stop-color="#0A0D10" stop-opacity="0"/>
</linearGradient>
<linearGradient id="paint15_linear_21_32" x1="5.25408" y1="37.9908" x2="5.77656" y2="50.4091" gradientUnits="userSpaceOnUse">
<stop stop-color="#252C36"/>
<stop offset="1" stop-color="#252C36" stop-opacity="0"/>
</linearGradient>
<linearGradient id="paint16_linear_21_32" x1="71.1925" y1="22.3202" x2="63.4816" y2="12.3798" gradientUnits="userSpaceOnUse">
<stop stop-color="#252C36"/>
<stop offset="1" stop-color="#252C36" stop-opacity="0"/>
</linearGradient>
<linearGradient id="paint17_linear_21_32" x1="32.3992" y1="5.66922" x2="19.8435" y2="11.0357" gradientUnits="userSpaceOnUse">
<stop stop-color="#252C36"/>
<stop offset="1" stop-color="#252C36" stop-opacity="0"/>
</linearGradient>
<linearGradient id="paint18_linear_21_32" x1="11.7558" y1="14.4354" x2="67.8342" y2="70.5571" gradientUnits="userSpaceOnUse">
<stop stop-color="#7C838E"/>
<stop offset="0.21" stop-color="#BCC2CC"/>
<stop offset="0.37" stop-color="#ACB5C1"/>
<stop offset="0.8" stop-color="#69707C"/>
<stop offset="1" stop-color="#323A45"/>
</linearGradient>
<radialGradient id="paint19_radial_21_32" cx="0" cy="0" r="1" gradientUnits="userSpaceOnUse" gradientTransform="translate(40.9654 44.7825) rotate(-90) scale(21.5399 22.6632)">
<stop stop-color="#8795A3"/>
<stop offset="0.71" stop-color="#3E4852"/>
<stop offset="1" stop-color="#171A1F"/>
</radialGradient>
<linearGradient id="paint20_linear_21_32" x1="18.2235" y1="33.1125" x2="23.7137" y2="27.6181" gradientUnits="userSpaceOnUse">
<stop stop-color="#22262C"/>
<stop offset="0.12" stop-color="#454D58"/>
<stop offset="1" stop-color="#454D58" stop-opacity="0"/>
</linearGradient>
<linearGradient id="paint21_linear_21_32" x1="26.4678" y1="59.9464" x2="22.1562" y2="50.9242" gradientUnits="userSpaceOnUse">
<stop stop-color="#22262C"/>
<stop offset="0.12" stop-color="#454D58"/>
<stop offset="1" stop-color="#454D58" stop-opacity="0"/>
</linearGradient>
<linearGradient id="paint22_linear_21_32" x1="55.086" y1="60.3908" x2="47.6294" y2="61.3072" gradientUnits="userSpaceOnUse">
<stop stop-color="#101215"/>
<stop offset="0.12" stop-color="#2D333C"/>
<stop offset="1" stop-color="#2D333C" stop-opacity="0"/>
</linearGradient>
<linearGradient id="paint23_linear_21_32" x1="63.8248" y1="33.4524" x2="62.5185" y2="40.773" gradientUnits="userSpaceOnUse">
<stop stop-color="#22262C"/>
<stop offset="0.12" stop-color="#454D58"/>
<stop offset="1" stop-color="#454D58" stop-opacity="0"/>
</linearGradient>
<linearGradient id="paint24_linear_21_32" x1="41.1798" y1="16.5425" x2="47.3259" y2="20.2068" gradientUnits="userSpaceOnUse">
<stop stop-color="#22262C"/>
<stop offset="0.12" stop-color="#454D58"/>
<stop offset="1" stop-color="#454D58" stop-opacity="0"/>
</linearGradient>
<linearGradient id="paint25_linear_21_32" x1="11.858" y1="27.2745" x2="18.6059" y2="29.3165" gradientUnits="userSpaceOnUse">
<stop offset="0.702552" stop-color="white"/>
<stop offset="1" stop-color="white" stop-opacity="0"/>
</linearGradient>
<linearGradient id="paint26_linear_21_32" x1="18.9223" y1="64.268" x2="19.8392" y2="59.5049" gradientUnits="userSpaceOnUse">
<stop offset="0.702552" stop-color="white"/>
<stop offset="1" stop-color="white" stop-opacity="0"/>
</linearGradient>
<linearGradient id="paint27_linear_21_32" x1="56.3368" y1="68.8431" x2="59.8346" y2="64.8575" gradientUnits="userSpaceOnUse">
<stop offset="0.702552" stop-color="white"/>
<stop offset="1" stop-color="white" stop-opacity="0"/>
</linearGradient>
<linearGradient id="paint28_linear_21_32" x1="72.2968" y1="34.464" x2="71.4832" y2="36.2691" gradientUnits="userSpaceOnUse">
<stop offset="0.702552" stop-color="white"/>
<stop offset="1" stop-color="white" stop-opacity="0"/>
</linearGradient>
<linearGradient id="paint29_linear_21_32" x1="44.6938" y1="9.10458" x2="41.0353" y2="15.9043" gradientUnits="userSpaceOnUse">
<stop offset="0.702552" stop-color="white"/>
<stop offset="1" stop-color="white" stop-opacity="0"/>
</linearGradient>
<clipPath id="clip0_21_32">
<rect width="79.5385" height="79.4771" fill="white" transform="translate(1 1)"/>
</clipPath>
</defs>
</svg>
