<svg width="200" height="200" viewBox="0 0 200 200" fill="none" xmlns="http://www.w3.org/2000/svg">
<path d="M151.349 51.3384C151.46 48.5172 150.952 45.9639 150.444 43.584C150.444 43.5683 150.444 43.5367 150.444 43.521C150.254 42.6857 149.698 40.1481 146.873 38.9503L146.635 38.84C146.444 38.7297 146.254 38.6509 146.048 38.5878L145.73 38.4932C142.619 37.5791 139.429 37.1378 136.111 37.1693C124.333 23.8986 105.603 17.5942 87.2222 22.4801C68.746 27.3975 55.6507 42.2759 52.2222 59.739C49.6349 61.2836 47.3333 63.0961 45.2856 65.2238C43.5714 67.0048 42.9841 69.5738 43.7301 71.9222C44.4761 74.2548 45.3491 76.7451 46.8095 79.0619C46.8253 79.0934 46.8571 79.125 46.8729 79.1722C47.8095 80.6538 49.3333 81.7255 51.0476 82.1353C52.5079 85.4766 54.0952 88.2506 55.873 90.5832C56.4126 91.2924 56.9841 91.9544 57.5555 92.5848C68.1428 111.246 90.4602 121.191 112.27 115.391C133.476 109.748 147.603 90.9614 148.143 70.22C148.349 69.5581 148.54 68.9119 148.682 68.2972C149.524 64.7195 149.698 60.7004 149.206 56.0509C150.476 54.8689 151.254 53.1982 151.349 51.4645C151.349 51.433 151.349 51.4172 151.349 51.3857V51.3384Z" fill="white"/>
<path d="M90.635 35.1518C93.6667 34.348 96.7461 33.9382 99.7937 33.9382C105.889 33.9382 111.905 35.5301 117.333 38.635C118.095 39.0763 118.825 39.5334 119.54 40.022C121.524 39.2654 123.54 38.5877 125.619 38.0203C125.635 38.0203 125.651 38.0203 125.667 38.0203C126.635 37.7682 127.603 37.5475 128.54 37.3584C126.302 35.3567 123.857 33.56 121.175 32.0312C111.254 26.3415 99.6984 24.8284 88.6191 27.7757C77.5556 30.723 68.3016 37.7682 62.5715 47.6187C61.0159 50.2981 59.7778 53.1036 58.8413 55.9878C60.0794 55.5465 61.3492 55.121 62.6985 54.7742C64.4762 54.3014 66.2858 53.9389 68.0794 53.6237C68.4445 52.8829 68.8254 52.1579 69.2381 51.4487C73.9365 43.3633 81.5238 37.579 90.6032 35.1676L90.635 35.1518ZM136.889 82.3401C135.048 83.207 133.143 83.932 131.238 84.4994C130.921 85.1298 130.587 85.776 130.222 86.3907C125.524 94.476 117.937 100.26 108.857 102.672C99.7778 105.083 90.2858 103.854 82.1429 99.1728C81.5397 98.8261 80.9683 98.4636 80.3969 98.1011C78.508 98.5739 76.0794 98.9837 73.4286 98.9837C72.2381 98.9837 70.9842 98.9049 69.7302 98.7C69.4445 98.6527 69.1746 98.5739 68.8889 98.5266C71.635 101.332 74.7778 103.791 78.2858 105.808C84.8889 109.591 92.2381 111.529 99.6667 111.529C103.397 111.529 107.143 111.041 110.841 110.064C121.905 107.116 131.159 100.071 136.889 90.2206C138.841 86.8635 140.302 83.3015 141.254 79.645C140 80.6379 138.556 81.5678 136.873 82.3559L136.889 82.3401Z" fill="#062140"/>
<path d="M145.048 44.6874C145.048 44.6874 145.048 44.6558 145.048 44.6401C144.921 44.0569 144.841 44.0254 144.683 43.9624C144.635 43.9466 144.588 43.9308 144.54 43.8993L144.143 43.726C138.937 42.1971 133.381 42.2602 127.127 43.9151C127.127 43.9151 127.095 43.9151 127.08 43.9151C121.318 45.4597 115.667 48.1548 110.699 50.5504C108.905 51.4173 107.27 52.1896 105.73 52.8831C103.016 54.2227 99.905 55.3733 96.6669 56.2401C93.4605 57.0912 90.1907 57.6429 87.2224 57.832C87.1907 57.832 87.1589 57.832 87.1431 57.832C85.4605 58.0054 83.6827 58.1315 81.7939 58.2733H81.651C76.1431 58.6831 69.905 59.1402 64.1272 60.669C57.8574 62.3396 53.0002 65.0505 49.2542 68.9592C48.9208 69.306 48.8097 69.7788 48.9526 70.2359C49.6193 72.3163 50.3177 74.3495 51.5081 76.225C51.5081 76.225 51.5081 76.225 51.5081 76.2408C51.6986 76.5245 51.9843 76.7136 52.3018 76.7924C52.6351 76.8712 53.0161 76.9343 53.397 76.9816C54.3494 77.1234 55.1589 77.7538 55.524 78.6522C56.9685 82.1827 58.5082 84.9881 60.2383 87.2419C63.1272 91.0246 66.6034 93.2784 70.5875 93.9246C73.9526 94.4604 77.2383 93.9088 79.4129 93.3256C79.4288 93.3256 79.4447 93.3256 79.4605 93.3256C79.6351 93.2784 79.7939 93.2311 79.9685 93.1838C83.397 92.1909 86.2066 91.2767 88.9843 89.2751C88.9843 89.2751 89.0161 89.2593 89.0161 89.2436L89.524 88.8968C92.6034 86.6745 94.4447 84.2631 95.6034 80.8745L95.7939 80.3386C96.2859 78.9202 96.6351 77.3283 96.8256 75.6419C96.8256 75.5473 96.8415 75.4685 96.8732 75.3897L97.0002 74.7908C97.0954 73.8609 97.0954 73.1674 97.0954 72.3794C97.0954 71.9065 97.0954 71.4179 97.0954 70.8663L97.1272 69.6527C97.1431 68.975 97.2224 68.3761 97.3494 67.8717C97.5716 66.9103 98.3018 66.1538 99.2383 65.8701C100.191 65.5864 101.207 65.8386 101.921 66.5163C102.699 67.257 103.461 68.4234 103.968 69.2745C103.968 69.2745 103.968 69.2902 103.984 69.306C104.175 69.637 104.397 70.0152 104.635 70.425C105.175 71.3864 105.762 72.4109 106.27 73.1201C106.27 73.1201 106.286 73.1516 106.302 73.1674C107.302 74.5071 108.397 75.6892 109.556 76.6979C109.556 76.6979 109.556 76.6979 109.572 76.7136C112.175 78.9674 115.286 80.3544 118.826 80.8587C121.953 81.3001 125.302 81.0479 128.794 80.118C130.699 79.6136 132.619 78.9044 134.476 78.0218C140.254 75.3109 142.445 70.5353 143.27 67.0049C144.048 63.6951 144.127 59.8336 143.524 55.2157C143.397 54.27 143.778 53.3244 144.54 52.7255C144.841 52.489 145.143 52.2369 145.397 52.0162C145.651 51.7956 145.794 51.4646 145.81 51.1178C145.81 51.1021 145.81 51.0863 145.81 51.0706C145.889 48.8798 145.476 46.7993 145 44.6716L145.048 44.6874ZM69.0637 68.581C65.9843 69.7473 64.524 71.3234 63.8415 72.931C63.1589 74.5544 63.2701 76.3669 63.7145 78.0218C64.2224 79.9131 65.1589 81.568 65.651 82.3403C65.8256 82.6082 65.905 82.7343 65.9843 82.8761C65.9843 82.9077 66.0161 82.9234 66.0637 83.081C66.0637 83.0968 66.0637 83.1283 66.0796 83.1914C66.0796 83.2544 66.1113 83.3332 66.032 83.6012C65.9843 83.7588 65.7621 84.0425 65.4764 84.1213C65.4764 84.1213 65.4764 84.1213 65.4447 84.1213C65.1589 84.2001 64.9843 84.1213 64.905 84.0897C64.8097 84.0582 64.778 84.0267 64.7621 84.0109C62.651 82.6397 61.3653 80.2756 60.6828 78.9359C60.0955 77.7381 59.524 76.4457 59.1431 75.0114C58.8415 73.9239 58.6669 72.7419 58.6669 71.4967C58.6669 70.0152 59.6193 68.8489 60.8574 67.9978C62.1113 67.1467 63.7462 66.5005 65.524 66.0277C66.4605 65.7755 67.4288 65.5706 68.4129 65.413C68.651 65.3657 68.8732 65.413 69.0637 65.5706C69.2542 65.7125 69.3653 65.9174 69.397 66.1538C69.4605 66.6424 69.524 67.131 69.6034 67.6196C69.6669 68.0136 69.4288 68.3918 69.0637 68.5337V68.581ZM75.1589 66.6266C75.1272 66.9891 74.8732 67.2728 74.5399 67.3674C74.5081 67.3674 74.4605 67.3831 74.4129 67.3831C73.6034 67.4777 72.8574 67.588 72.1431 67.7299C71.9208 67.7772 71.6828 67.7299 71.4923 67.588C71.3018 67.4619 71.1748 67.257 71.1272 67.0364C71.0637 66.7054 71.0161 66.3587 70.9685 66.0119C70.9367 65.7755 71.0161 65.5391 71.1589 65.3657C71.3018 65.1924 71.524 65.0663 71.7621 65.0663C72.6828 65.0032 73.5716 65.0032 74.397 65.019C74.6351 65.019 74.8732 65.1451 75.032 65.3184C75.1907 65.5076 75.2701 65.744 75.2224 65.9804C75.1907 66.1853 75.1748 66.406 75.1431 66.6108L75.1589 66.6266ZM117.921 55.5309C114.921 57.2173 113.492 59.1086 112.841 60.9527C112.191 62.7967 112.349 64.6407 112.778 66.2326C113.302 68.1554 114.175 69.5897 114.476 70.1255C114.524 70.2201 114.556 70.2516 114.619 70.4565C114.619 70.5038 114.651 70.5511 114.651 70.6457C114.651 70.7402 114.667 70.8821 114.54 71.15C114.445 71.3076 114.238 71.481 114.048 71.5283C114.048 71.5283 114.048 71.5283 114.032 71.5283C113.635 71.6071 113.524 71.4967 113.429 71.4652C113.365 71.4337 113.334 71.4179 113.302 71.3864C112.492 70.8821 111.159 69.7473 109.81 68.1397C108.461 66.5163 107.111 64.4043 106.445 61.9456C106.413 61.8353 106.381 61.725 106.365 61.6146C106.111 60.5744 106.413 59.5499 106.984 58.7146C107.556 57.8635 108.413 57.1228 109.413 56.4293C111.429 55.0581 114.127 53.9233 116.746 53.0564C117.143 52.9303 117.572 53.1037 117.762 53.4662C117.921 53.7657 118.095 54.0809 118.254 54.3804C118.476 54.7901 118.318 55.2945 117.921 55.5309ZM124.397 52.7727C124.286 52.9776 124.095 53.1195 123.889 53.1825C122.794 53.482 121.794 53.813 120.905 54.1597C120.873 54.1597 120.857 54.1755 120.826 54.1912C120.445 54.2858 120.048 54.1282 119.857 53.7657C119.778 53.6238 119.699 53.4662 119.619 53.3086C119.492 53.0722 119.492 52.8043 119.588 52.5678C119.699 52.3314 119.905 52.1581 120.159 52.095C121.461 51.7798 122.603 51.5591 123.556 51.4488C123.968 51.4015 124.349 51.6537 124.476 52.0477C124.476 52.0477 124.492 52.1265 124.508 52.1265C124.572 52.3472 124.54 52.5836 124.429 52.7727H124.397Z" fill="url(#paint0_linear_421_866)"/>
<path d="M176.953 28.6585C177.619 28.7373 177.619 29.8563 176.953 29.9351C165.572 31.2906 163.064 33.7966 161.683 45.0972C161.603 45.7591 160.476 45.7591 160.397 45.0972C159.032 33.7966 156.508 31.3063 145.127 29.9351C144.461 29.8563 144.461 28.7373 145.127 28.6585C156.508 27.3031 159.016 24.7971 160.397 13.4965C160.476 12.8345 161.603 12.8345 161.683 13.4965C163.048 24.7971 165.572 27.2873 176.953 28.6585Z" fill="#E5157D"/>
<path d="M24.7936 151.799C22.7936 150.585 20.0952 149.435 16.7143 148.379C14.6032 147.685 12.9524 147.039 11.7619 146.44C10.5714 145.81 9.74603 145.116 9.25397 144.344C8.77778 143.572 8.52381 142.642 8.52381 141.586C8.52381 139.742 9.22222 138.323 10.6349 137.33C12.0476 136.306 14.0159 135.786 16.5397 135.786C18.3968 135.786 20.3016 136.069 22.2698 136.621C24.2698 137.173 26.0794 137.929 27.6667 138.891L28.6667 133.138C27.0317 132.176 25.1111 131.42 22.873 130.868C20.6825 130.317 18.5079 130.033 16.3651 130.033C13.4286 130.033 10.873 130.537 8.68254 131.53C6.49206 132.492 4.77778 133.847 3.55556 135.628C2.36508 137.393 1.77778 139.489 1.77778 141.932C1.77778 144.029 2.19048 145.841 3 147.354C3.80952 148.867 5.15873 150.191 7.01587 151.326C8.87302 152.429 11.3651 153.469 14.4762 154.415C16.8571 155.156 18.6825 155.865 19.9841 156.574C21.3175 157.236 22.254 157.977 22.7619 158.781C23.3175 159.585 23.6032 160.562 23.6032 161.712C23.6032 163.698 22.8095 165.274 21.2063 166.409C19.6032 167.512 17.4286 168.064 14.6349 168.064C12.5238 168.064 10.2698 167.733 7.90476 167.071C5.57143 166.378 3.50794 165.479 1.73016 164.423L1 170.397C2.03175 171.059 3.31746 171.642 4.84127 172.162C6.36508 172.682 8 173.076 9.74603 173.376C11.5238 173.675 13.254 173.817 14.9206 173.817C19.7778 173.817 23.6032 172.714 26.3968 170.507C29.1746 168.253 30.5714 165.18 30.5714 161.271C30.5714 159.206 30.1111 157.425 29.1746 155.912C28.2857 154.368 26.8254 152.997 24.7778 151.815L24.7936 151.799ZM62.6984 166.283L55.8571 145.006H50.3968L43.9365 166.173L37.873 145.006H31.254L40.7778 172.918H46.5714L53.0317 152.461L59.873 172.918H65.7143L75.2857 145.006H68.7778L62.7143 166.283H62.6984ZM99.7143 149.592C98.7143 147.859 97.3809 146.519 95.7143 145.557C94.0476 144.596 92.1905 144.123 90.1429 144.123C87.619 144.123 85.3175 144.785 83.2381 146.109C81.1587 147.433 79.5079 149.23 78.2857 151.468C77.0952 153.674 76.5079 156.18 76.5079 158.986C76.5079 161.791 77.0635 164.423 78.1746 166.677C79.3175 168.884 80.8889 170.633 82.8571 171.926C84.8571 173.171 87.1428 173.801 89.6984 173.801C94.2698 173.801 97.6032 171.973 99.7143 168.332L99.8254 172.918H106V145.006H99.8254L99.7143 149.592ZM97.6032 165.574C96.0476 167.276 94 168.111 91.4762 168.111C88.9524 168.111 86.9524 167.26 85.3492 165.574C83.7936 163.84 83.0159 161.634 83.0159 158.938C83.0159 156.243 83.7936 154.053 85.3492 152.366C86.9524 150.664 88.9841 149.829 91.4762 149.829C93.9682 149.829 96.0476 150.68 97.6032 152.366C99.2063 154.068 100 156.259 100 158.938C100 161.618 99.2063 163.84 97.6032 165.574ZM126.333 144.123C124.286 144.123 122.492 144.58 120.937 145.51C119.381 146.424 118.19 147.701 117.381 149.324L117.317 145.006H111.143V172.918H117.54V157.709C117.54 155.203 118.127 153.249 119.317 151.846C120.54 150.443 122.206 149.75 124.333 149.75C128.19 149.75 130.127 152.224 130.127 157.157V172.918H136.524V156.007C136.524 152.177 135.651 149.246 133.905 147.212C132.159 145.148 129.635 144.123 126.333 144.123ZM167.27 145.006H159.413L147.889 155.944V128.142H141.492V172.918H147.889V159.38L161.079 172.918H169.381L153.952 157.331L167.254 145.006H167.27ZM192.206 145.006L184.349 164.297L176.048 145.006H169.095L181.016 170.87L173.508 186.457H180.016L199 144.99H192.206V145.006Z" fill="#062140"/>
<defs>
<linearGradient id="paint0_linear_421_866" x1="52.2859" y1="55.72" x2="140.884" y2="77.0926" gradientUnits="userSpaceOnUse">
<stop offset="0.07" stop-color="#E5157D"/>
<stop offset="0.25" stop-color="#6B51A1"/>
<stop offset="0.44" stop-color="#3E71B8"/>
<stop offset="0.68" stop-color="#4991CE"/>
<stop offset="0.99" stop-color="#5BCAE9"/>
</linearGradient>
</defs>
</svg>
